<svg id="svg" version="1.1" xmlns="http://www.w3.org/2000/svg" xmlns:xlink="http://www.w3.org/1999/xlink" width="1" height="1" viewBox="0, 0, 0, 0"><g id="svgg"><path id="path0" d="M294.000 70.875 C 290.071 72.529,288.209 73.768,287.200 75.401 C 284.252 80.170,287.708 84.215,294.501 83.946 C 300.325 83.716,299.377 86.371,293.272 87.391 C 291.098 87.754,290.859 88.382,292.031 90.660 C 292.948 92.443,292.994 92.471,294.535 92.225 C 306.869 90.252,308.607 77.200,296.474 77.657 C 291.283 77.852,291.129 75.999,296.275 75.267 L 298.200 74.993 298.320 72.697 L 298.440 70.400 296.720 70.427 C 295.774 70.442,294.550 70.644,294.000 70.875 M184.800 74.267 C 181.962 75.234,179.200 77.711,179.200 79.291 C 179.200 80.163,178.663 80.191,177.430 79.383 C 176.564 78.815,176.356 78.836,174.809 79.642 C 172.131 81.038,172.066 80.755,177.214 90.200 C 178.532 92.620,179.921 95.275,180.300 96.100 C 180.736 97.049,181.262 97.600,181.732 97.600 C 182.314 97.600,186.538 95.567,187.122 95.006 C 187.189 94.942,186.064 92.584,184.622 89.768 C 181.983 84.613,181.510 82.776,182.500 81.517 C 183.934 79.693,185.997 80.633,187.712 83.893 C 192.572 93.129,192.028 92.662,195.530 90.609 C 198.142 89.078,198.149 89.055,196.773 86.570 C 196.399 85.893,195.151 83.553,194.000 81.370 C 190.699 75.103,188.142 73.130,184.800 74.267 M274.607 80.875 C 272.685 81.888,270.879 83.746,270.553 85.047 C 270.276 86.150,269.897 86.240,269.057 85.400 C 268.254 84.597,268.004 84.631,265.850 85.834 C 263.447 87.178,263.110 85.917,268.622 96.200 C 269.684 98.180,270.984 100.654,271.511 101.698 C 272.783 104.216,272.751 104.209,275.655 102.632 C 278.880 100.880,278.861 101.250,275.999 95.734 C 273.324 90.577,272.907 88.629,274.178 87.224 C 276.195 84.995,277.180 86.004,281.868 95.100 C 283.580 98.423,283.457 98.375,286.484 96.907 C 289.833 95.284,289.904 95.881,285.326 87.238 C 281.615 80.231,278.894 78.615,274.607 80.875 M161.200 86.511 C 154.617 89.695,153.604 95.636,158.473 102.498 C 162.881 108.711,179.091 103.675,175.204 97.300 C 174.214 95.676,174.371 95.654,171.752 97.787 C 168.653 100.312,165.668 100.927,164.331 99.317 C 163.754 98.622,163.494 98.810,169.582 95.522 C 174.449 92.893,174.444 92.904,172.710 90.015 C 170.126 85.709,165.665 84.351,161.200 86.511 M142.516 88.527 C 139.629 90.006,139.528 90.365,141.200 93.200 C 141.860 94.319,142.400 95.334,142.400 95.456 C 142.400 95.577,142.755 96.175,143.188 96.783 C 144.124 98.098,143.895 98.492,142.501 97.962 C 139.174 96.698,135.200 100.358,135.200 104.688 C 135.200 114.473,146.509 121.082,150.288 113.505 L 151.225 111.625 152.514 112.239 C 153.739 112.824,153.896 112.802,155.701 111.793 C 157.964 110.528,157.981 110.383,156.253 107.133 C 155.512 105.740,154.233 103.340,153.411 101.800 C 152.588 100.260,150.824 96.930,149.489 94.400 C 145.128 86.133,145.907 86.789,142.516 88.527 M165.996 90.995 C 166.713 91.859,166.318 92.484,164.413 93.500 C 162.186 94.687,161.600 94.651,161.600 93.326 C 161.600 91.104,164.715 89.452,165.996 90.995 M254.200 91.968 C 247.561 93.797,244.707 99.349,247.343 105.310 C 250.586 112.643,258.119 114.150,263.688 108.579 C 270.177 102.088,263.011 89.542,254.200 91.968 M233.800 94.067 C 231.267 95.468,230.611 97.129,231.846 99.014 C 233.633 101.742,239.488 98.389,237.957 95.515 C 236.986 93.693,235.446 93.156,233.800 94.067 M256.829 97.886 C 260.471 100.950,260.843 106.400,257.410 106.400 C 254.120 106.400,251.186 98.901,253.900 97.429 C 255.358 96.638,255.343 96.635,256.829 97.886 M236.700 101.290 C 233.657 102.965,233.355 101.706,239.602 113.400 C 240.542 115.160,241.664 117.275,242.096 118.100 C 243.044 119.912,243.035 119.911,246.019 118.358 C 249.102 116.754,249.077 116.829,247.482 113.902 C 246.732 112.526,245.069 109.420,243.787 107.000 C 240.276 100.371,240.175 100.207,239.566 100.112 C 239.255 100.063,237.965 100.593,236.700 101.290 M331.903 105.150 C 327.666 107.322,321.860 110.316,319.000 111.804 C 316.140 113.291,311.280 115.810,308.200 117.400 C 305.120 118.991,300.080 121.600,297.000 123.197 C 293.920 124.795,288.880 127.405,285.800 128.997 C 282.720 130.589,277.950 133.064,275.200 134.497 C 272.450 135.930,267.500 138.497,264.200 140.203 C 260.900 141.908,255.590 144.652,252.400 146.301 C 249.210 147.949,244.350 150.470,241.600 151.903 C 238.850 153.336,234.035 155.834,230.900 157.454 C 220.245 162.960,213.410 166.499,208.600 169.001 C 205.960 170.374,201.550 172.665,198.800 174.093 C 196.050 175.521,191.505 177.885,188.700 179.345 C 175.958 185.978,173.068 187.481,168.100 190.054 C 165.185 191.565,160.415 194.035,157.500 195.546 C 154.585 197.056,149.950 199.464,147.200 200.897 C 144.450 202.331,139.725 204.785,136.700 206.352 C 133.675 207.918,128.725 210.482,125.700 212.048 C 122.675 213.615,117.950 216.069,115.200 217.503 C 112.450 218.936,107.815 221.344,104.900 222.854 C 99.723 225.537,94.431 228.280,83.300 234.052 C 80.275 235.621,75.640 238.024,73.000 239.393 C 70.360 240.761,65.140 243.474,61.400 245.422 C 57.660 247.370,53.839 249.332,52.910 249.782 C 50.698 250.852,50.323 253.847,52.300 254.654 C 54.043 255.365,64.931 259.473,68.800 260.879 C 70.010 261.318,71.360 261.823,71.800 262.000 C 72.240 262.177,73.680 262.717,75.000 263.200 C 76.320 263.683,77.760 264.223,78.200 264.400 C 78.640 264.577,80.080 265.117,81.400 265.600 C 82.720 266.083,84.160 266.623,84.600 266.800 C 85.040 266.977,86.480 267.517,87.800 268.000 C 89.120 268.483,90.560 269.023,91.000 269.200 C 91.440 269.377,92.880 269.917,94.200 270.400 C 95.520 270.883,96.960 271.423,97.400 271.600 C 97.840 271.777,99.280 272.317,100.600 272.800 C 101.920 273.283,103.360 273.823,103.800 274.000 C 104.240 274.177,105.680 274.717,107.000 275.200 C 108.320 275.683,109.760 276.223,110.200 276.400 C 110.640 276.577,112.080 277.117,113.400 277.600 C 114.720 278.083,116.160 278.623,116.600 278.800 C 117.040 278.977,118.480 279.517,119.800 280.000 C 121.120 280.483,122.560 281.023,123.000 281.200 C 123.440 281.377,124.880 281.917,126.200 282.400 C 127.520 282.883,128.960 283.423,129.400 283.600 C 133.368 285.197,134.914 285.672,135.138 285.362 C 135.282 285.163,136.930 283.652,138.800 282.006 C 140.670 280.359,142.290 278.919,142.400 278.806 C 142.510 278.692,144.310 277.070,146.400 275.200 C 148.490 273.330,150.290 271.708,150.400 271.594 C 150.510 271.481,152.130 270.041,154.000 268.394 C 155.870 266.748,157.490 265.310,157.600 265.200 C 157.710 265.090,159.510 263.470,161.600 261.600 C 163.690 259.730,165.490 258.110,165.600 258.000 C 165.710 257.890,167.510 256.270,169.600 254.400 C 171.690 252.530,173.490 250.908,173.600 250.794 C 173.710 250.681,175.330 249.241,177.199 247.594 C 179.069 245.948,180.869 244.329,181.199 243.998 C 181.530 243.667,183.330 242.047,185.200 240.398 C 187.070 238.749,188.690 237.310,188.800 237.200 C 188.910 237.090,190.710 235.470,192.800 233.600 C 194.890 231.730,196.690 230.110,196.800 230.000 C 196.910 229.890,198.710 228.270,200.800 226.400 C 202.890 224.530,204.690 222.910,204.800 222.800 C 204.910 222.690,206.710 221.070,208.800 219.200 C 210.890 217.330,212.690 215.710,212.800 215.600 C 212.910 215.490,214.530 214.050,216.400 212.400 C 218.270 210.750,219.890 209.308,220.000 209.194 C 220.110 209.081,221.730 207.641,223.599 205.994 C 225.469 204.348,227.269 202.729,227.599 202.398 C 227.930 202.067,229.730 200.447,231.600 198.798 C 233.470 197.149,235.090 195.710,235.200 195.600 C 235.310 195.490,237.110 193.870,239.200 192.000 C 241.290 190.130,243.090 188.508,243.200 188.394 C 243.310 188.281,244.930 186.841,246.799 185.194 C 248.669 183.548,250.469 181.930,250.800 181.600 C 251.131 181.270,252.931 179.652,254.801 178.006 C 256.670 176.359,258.290 174.919,258.400 174.806 C 258.510 174.692,260.310 173.070,262.400 171.200 C 264.490 169.330,266.290 167.708,266.400 167.594 C 266.510 167.481,268.130 166.041,270.000 164.394 C 271.870 162.748,273.490 161.310,273.600 161.200 C 273.710 161.090,275.510 159.470,277.600 157.600 C 279.690 155.730,281.490 154.110,281.600 154.000 C 281.710 153.890,283.510 152.270,285.600 150.400 C 287.690 148.530,289.490 146.908,289.600 146.794 C 289.710 146.681,291.330 145.241,293.200 143.594 C 295.070 141.948,296.690 140.510,296.800 140.400 C 296.910 140.290,298.710 138.670,300.800 136.800 C 302.890 134.930,304.690 133.310,304.800 133.200 C 304.910 133.090,306.710 131.470,308.800 129.600 C 310.890 127.730,312.690 126.110,312.800 126.000 C 312.910 125.890,314.530 124.450,316.400 122.800 C 318.270 121.150,319.890 119.710,320.000 119.600 C 320.110 119.490,321.910 117.870,324.000 116.000 C 326.090 114.130,327.890 112.510,328.000 112.400 C 328.110 112.290,329.910 110.672,332.000 108.804 C 337.155 104.198,340.261 101.211,339.903 101.205 C 339.739 101.202,336.139 102.977,331.903 105.150 M147.745 104.502 C 149.177 106.991,149.391 108.475,148.483 109.597 C 146.773 111.709,143.977 110.239,142.531 106.469 C 140.740 101.796,145.218 100.107,147.745 104.502 M223.600 103.890 C 221.338 104.734,220.698 105.663,220.934 107.761 C 221.104 109.274,220.975 110.201,220.433 111.354 C 219.334 113.692,220.332 115.934,222.007 114.888 C 222.846 114.364,223.131 114.734,225.790 119.800 C 229.068 126.045,231.939 126.974,236.880 123.386 C 239.388 121.565,239.746 120.839,238.882 119.328 C 237.242 116.462,237.405 116.577,236.358 117.554 C 234.045 119.708,232.975 119.142,230.611 114.513 C 228.971 111.301,228.995 111.125,231.227 109.986 C 233.049 109.057,233.080 108.929,231.962 106.912 C 230.686 104.608,230.568 104.558,228.786 105.560 C 226.921 106.608,226.282 106.489,225.534 104.955 C 224.958 103.773,224.537 103.541,223.600 103.890 M343.796 109.266 C 341.378 112.163,339.219 114.728,338.998 114.966 C 338.777 115.205,337.790 116.390,336.804 117.600 C 335.818 118.810,334.916 119.890,334.800 120.000 C 334.684 120.110,333.784 121.190,332.800 122.400 C 331.816 123.610,330.916 124.690,330.800 124.800 C 330.684 124.910,329.784 125.990,328.800 127.200 C 327.816 128.410,326.916 129.490,326.800 129.600 C 326.684 129.710,325.784 130.790,324.800 132.000 C 323.816 133.210,322.916 134.290,322.800 134.400 C 322.684 134.510,321.784 135.590,320.800 136.800 C 319.816 138.010,318.916 139.090,318.800 139.200 C 318.684 139.310,317.784 140.390,316.800 141.600 C 315.816 142.810,314.914 143.890,314.796 144.000 C 314.678 144.110,310.901 148.610,306.402 154.000 C 291.331 172.058,290.209 173.399,289.998 173.600 C 289.883 173.710,288.984 174.790,288.000 176.000 C 287.016 177.210,286.116 178.290,286.000 178.400 C 285.884 178.510,284.984 179.590,284.000 180.800 C 283.016 182.010,282.116 183.090,282.000 183.200 C 281.884 183.310,280.984 184.390,280.000 185.600 C 279.016 186.810,278.116 187.890,278.000 188.000 C 277.884 188.110,276.984 189.190,276.000 190.400 C 275.016 191.610,274.116 192.690,274.000 192.800 C 273.884 192.910,272.984 193.990,272.000 195.200 C 271.016 196.410,270.113 197.490,269.994 197.600 C 269.874 197.710,266.103 202.210,261.613 207.600 C 242.720 230.282,229.415 246.213,229.209 246.400 C 229.088 246.510,228.184 247.590,227.200 248.800 C 226.216 250.010,225.316 251.090,225.200 251.200 C 225.084 251.310,224.184 252.390,223.200 253.600 C 222.216 254.810,221.316 255.890,221.200 256.000 C 221.084 256.110,220.184 257.190,219.200 258.400 C 218.216 259.610,217.316 260.690,217.200 260.800 C 217.084 260.910,216.184 261.990,215.200 263.200 C 214.216 264.410,213.316 265.490,213.200 265.600 C 213.084 265.710,212.184 266.790,211.200 268.000 C 210.216 269.210,209.316 270.290,209.200 270.400 C 209.084 270.510,208.184 271.590,207.200 272.800 C 206.216 274.010,205.307 275.090,205.181 275.200 C 205.055 275.310,200.856 280.313,195.852 286.317 C 186.878 297.084,185.600 298.988,185.600 301.591 C 185.600 302.190,185.441 303.202,185.246 303.840 C 185.052 304.478,184.681 306.260,184.422 307.800 C 184.164 309.340,183.796 311.410,183.606 312.400 C 183.416 313.390,183.055 315.370,182.804 316.800 C 182.552 318.230,182.191 320.120,182.000 321.000 C 181.809 321.880,181.448 323.770,181.196 325.200 C 180.945 326.630,180.587 328.610,180.400 329.600 C 180.213 330.590,179.852 332.570,179.598 334.000 C 179.343 335.430,178.969 337.455,178.767 338.500 C 178.565 339.545,178.235 341.255,178.033 342.300 C 177.831 343.345,177.457 345.370,177.202 346.800 C 176.111 352.931,174.496 361.463,173.988 363.787 C 173.181 367.476,172.767 368.045,193.140 337.490 C 203.075 322.591,211.346 310.400,211.521 310.400 C 211.697 310.400,212.011 310.553,212.220 310.740 C 212.429 310.928,213.860 311.573,215.400 312.174 C 216.940 312.775,218.785 313.522,219.500 313.834 C 220.215 314.145,221.385 314.656,222.100 314.969 C 222.815 315.282,224.390 315.926,225.600 316.400 C 226.810 316.874,228.385 317.518,229.100 317.831 C 229.815 318.144,230.985 318.656,231.700 318.969 C 232.415 319.282,233.990 319.926,235.200 320.400 C 236.410 320.874,238.030 321.540,238.800 321.879 C 241.788 323.194,242.673 323.566,244.768 324.390 C 245.960 324.858,247.685 325.583,248.600 326.000 C 249.515 326.417,251.240 327.142,252.432 327.610 C 254.527 328.434,255.412 328.806,258.400 330.121 C 259.170 330.460,260.790 331.126,262.000 331.600 C 264.124 332.433,264.996 332.799,268.000 334.121 C 268.770 334.460,270.375 335.121,271.568 335.590 C 272.760 336.058,274.485 336.783,275.400 337.200 C 276.315 337.617,278.040 338.342,279.232 338.810 C 281.327 339.634,282.212 340.006,285.200 341.321 C 285.970 341.660,287.590 342.326,288.800 342.800 C 291.018 343.669,291.913 344.048,295.200 345.505 C 301.903 348.476,302.725 348.264,303.555 343.349 C 303.847 341.617,304.237 339.570,304.421 338.800 C 304.605 338.030,304.957 336.230,305.204 334.800 C 305.451 333.370,305.809 331.480,306.000 330.600 C 306.191 329.720,306.554 327.830,306.808 326.400 C 307.753 321.079,308.072 319.360,308.405 317.800 C 308.593 316.920,308.951 315.030,309.200 313.600 C 309.449 312.170,309.809 310.280,310.000 309.400 C 310.191 308.520,310.551 306.630,310.800 305.200 C 311.049 303.770,311.409 301.880,311.600 301.000 C 311.791 300.120,312.154 298.230,312.408 296.800 C 313.353 291.479,313.672 289.760,314.005 288.200 C 314.193 287.320,314.551 285.430,314.800 284.000 C 315.049 282.570,315.409 280.680,315.600 279.800 C 315.791 278.920,316.151 277.030,316.400 275.600 C 316.649 274.170,317.009 272.280,317.200 271.400 C 317.391 270.520,317.754 268.630,318.008 267.200 C 318.953 261.879,319.272 260.160,319.605 258.600 C 319.793 257.720,320.151 255.830,320.400 254.400 C 320.649 252.970,321.009 251.080,321.200 250.200 C 321.391 249.320,321.751 247.430,322.000 246.000 C 322.249 244.570,322.609 242.680,322.800 241.800 C 322.991 240.920,323.354 239.030,323.608 237.600 C 324.553 232.279,324.872 230.560,325.205 229.000 C 325.393 228.120,325.751 226.230,326.000 224.800 C 326.249 223.370,326.609 221.480,326.800 220.600 C 326.991 219.720,327.351 217.830,327.600 216.400 C 327.849 214.970,328.209 213.080,328.400 212.200 C 328.591 211.320,328.954 209.430,329.208 208.000 C 330.153 202.679,330.472 200.960,330.805 199.400 C 330.993 198.520,331.351 196.630,331.600 195.200 C 331.849 193.770,332.209 191.880,332.400 191.000 C 332.591 190.120,332.951 188.230,333.200 186.800 C 333.449 185.370,333.807 183.480,333.995 182.600 C 334.328 181.040,334.647 179.321,335.592 174.000 C 335.846 172.570,336.209 170.680,336.400 169.800 C 336.591 168.920,336.951 167.030,337.200 165.600 C 337.449 164.170,337.809 162.280,338.000 161.400 C 338.191 160.520,338.551 158.630,338.800 157.200 C 339.049 155.770,339.407 153.880,339.595 153.000 C 339.928 151.440,340.247 149.721,341.192 144.400 C 341.446 142.970,341.809 141.080,342.000 140.200 C 342.191 139.320,342.551 137.430,342.800 136.000 C 343.049 134.570,343.409 132.680,343.600 131.800 C 343.791 130.920,344.151 129.030,344.400 127.600 C 344.649 126.170,345.009 124.280,345.200 123.400 C 345.391 122.520,345.752 120.630,346.004 119.200 C 346.870 114.268,347.804 109.398,348.433 106.523 C 349.227 102.894,349.005 103.025,343.796 109.266 M122.200 107.425 C 115.598 110.741,114.627 117.448,119.864 123.566 C 123.564 127.889,130.857 127.107,136.143 121.821 C 137.408 120.556,137.391 120.775,136.390 118.578 C 135.490 116.602,134.892 116.391,133.762 117.647 C 131.247 120.441,127.216 121.788,125.752 120.323 C 124.872 119.444,125.152 119.132,128.289 117.500 C 133.995 114.532,134.608 114.189,134.880 113.808 C 135.137 113.450,133.860 110.940,132.400 108.934 C 130.451 106.256,125.876 105.579,122.200 107.425 M126.826 111.614 C 128.095 112.293,127.720 113.054,125.557 114.184 C 123.337 115.345,122.400 115.289,122.400 113.994 C 122.400 112.075,125.037 110.657,126.826 111.614 M102.400 112.442 C 100.087 113.054,91.200 117.719,91.200 118.322 C 91.200 118.628,91.839 120.042,92.620 121.464 C 93.401 122.885,95.009 125.882,96.192 128.124 C 98.858 133.173,101.659 138.371,102.233 139.334 C 102.639 140.016,102.825 139.980,105.317 138.730 C 108.505 137.131,108.544 136.925,106.400 132.904 C 103.353 127.189,104.275 127.111,112.657 132.374 L 114.714 133.666 117.557 132.195 C 120.798 130.518,121.216 130.076,120.164 129.447 C 118.900 128.691,114.705 126.370,112.664 125.297 C 110.513 124.166,110.048 123.455,110.737 122.352 C 111.380 121.322,111.317 117.384,110.636 116.080 C 108.996 112.942,105.819 111.538,102.400 112.442 M210.798 115.011 C 208.490 115.723,203.609 119.074,202.817 120.490 C 202.225 121.547,202.249 121.617,203.603 122.774 C 205.420 124.326,205.689 124.301,207.654 122.394 C 209.423 120.677,210.641 120.169,211.971 120.591 C 212.812 120.858,213.159 122.400,212.378 122.400 C 210.315 122.400,205.639 127.142,205.314 129.563 C 204.360 136.681,214.317 138.892,217.641 132.300 C 218.113 131.365,218.551 130.541,218.614 130.468 C 218.678 130.395,219.206 130.648,219.787 131.028 C 220.801 131.693,220.913 131.685,222.613 130.837 C 224.997 129.646,225.000 129.628,223.409 126.735 C 222.643 125.341,221.337 122.876,220.508 121.258 C 217.413 115.219,215.052 113.700,210.798 115.011 M104.413 119.015 C 105.629 120.481,104.204 124.000,102.394 124.000 C 101.600 124.000,99.428 120.225,99.746 119.397 C 100.210 118.186,103.501 117.917,104.413 119.015 M194.454 123.819 C 185.598 126.644,183.512 134.972,189.987 141.655 C 193.646 145.431,199.154 145.069,203.594 140.759 C 205.427 138.981,205.504 138.565,204.406 136.411 C 203.293 134.229,202.844 134.083,201.639 135.508 C 199.135 138.471,196.747 139.040,194.959 137.100 C 191.494 133.341,192.281 129.549,196.674 128.834 L 198.200 128.586 198.200 125.993 C 198.200 123.007,197.774 122.760,194.454 123.819 M173.151 126.240 C 170.142 127.832,170.525 132.000,173.682 132.000 C 176.313 132.000,178.260 130.095,177.795 127.977 C 177.327 125.844,175.319 125.093,173.151 126.240 M215.586 126.374 C 216.218 127.555,216.086 128.457,215.130 129.474 C 213.714 130.981,211.600 130.372,211.600 128.457 C 211.600 126.651,214.831 124.962,215.586 126.374 M176.712 133.138 C 173.720 134.846,173.740 134.636,176.146 139.236 C 179.782 146.187,181.768 149.847,182.433 150.824 L 183.067 151.754 185.233 150.637 C 189.294 148.544,189.834 150.589,180.764 133.700 C 179.708 131.733,179.278 131.673,176.712 133.138 M308.600 138.661 C 307.940 139.231,306.590 140.440,305.599 141.348 C 304.608 142.257,302.088 144.530,299.999 146.400 C 297.910 148.270,295.300 150.625,294.200 151.635 C 293.100 152.645,291.302 154.265,290.203 155.235 C 289.105 156.206,287.305 157.826,286.203 158.835 C 285.102 159.845,283.300 161.465,282.200 162.435 C 281.100 163.406,279.930 164.471,279.600 164.802 C 279.270 165.133,277.470 166.752,275.600 168.400 C 273.730 170.048,271.930 171.671,271.600 172.006 C 271.270 172.341,269.470 173.961,267.601 175.607 C 265.731 177.253,263.931 178.870,263.601 179.201 C 263.270 179.531,261.290 181.331,259.200 183.201 C 257.110 185.070,255.310 186.690,255.200 186.800 C 255.090 186.910,253.290 188.530,251.200 190.400 C 249.110 192.270,247.310 193.890,247.200 194.000 C 247.090 194.110,245.290 195.730,243.200 197.600 C 241.110 199.470,239.310 201.090,239.200 201.200 C 239.090 201.310,237.290 202.930,235.200 204.800 C 233.110 206.670,231.310 208.290,231.200 208.400 C 231.090 208.510,229.290 210.130,227.200 212.000 C 225.110 213.870,223.310 215.490,223.200 215.600 C 223.090 215.710,221.290 217.330,219.200 219.200 C 217.110 221.070,215.310 222.690,215.200 222.800 C 215.090 222.910,213.290 224.530,211.200 226.400 C 209.110 228.270,207.310 229.890,207.200 230.000 C 207.090 230.110,205.290 231.730,203.200 233.600 C 201.110 235.470,199.310 237.090,199.200 237.200 C 199.090 237.310,197.290 238.930,195.200 240.800 C 193.110 242.670,190.500 245.025,189.400 246.035 C 188.300 247.045,186.502 248.665,185.403 249.635 C 184.305 250.606,182.505 252.226,181.403 253.235 C 180.302 254.245,178.502 255.865,177.403 256.835 C 176.305 257.806,174.505 259.426,173.403 260.435 C 172.302 261.445,170.502 263.065,169.403 264.035 C 168.305 265.006,166.505 266.626,165.403 267.635 C 164.302 268.645,162.502 270.265,161.403 271.235 C 160.305 272.206,158.505 273.826,157.403 274.835 C 156.302 275.845,154.502 277.465,153.403 278.435 C 152.305 279.406,150.505 281.026,149.403 282.035 C 148.302 283.045,146.501 284.665,145.402 285.635 C 144.303 286.606,142.623 288.131,141.667 289.024 L 139.929 290.648 140.951 293.624 C 141.512 295.261,143.066 299.750,144.403 303.600 C 145.740 307.450,147.539 312.670,148.400 315.200 C 149.261 317.730,151.061 322.950,152.400 326.800 C 153.739 330.650,155.539 335.870,156.400 338.400 C 157.261 340.930,159.062 346.150,160.403 350.000 C 161.743 353.850,163.505 359.023,164.319 361.496 C 166.216 367.257,166.338 367.202,167.604 360.000 C 167.855 358.570,168.213 356.590,168.400 355.600 C 168.587 354.610,168.945 352.630,169.196 351.200 C 169.448 349.770,169.809 347.880,170.000 347.000 C 170.191 346.120,170.552 344.230,170.804 342.800 C 171.055 341.370,171.413 339.390,171.600 338.400 C 171.787 337.410,172.145 335.430,172.396 334.000 C 172.648 332.570,173.009 330.680,173.200 329.800 C 173.391 328.920,173.752 327.030,174.004 325.600 C 174.255 324.170,174.613 322.190,174.800 321.200 C 174.987 320.210,175.345 318.230,175.596 316.800 C 175.848 315.370,176.209 313.480,176.400 312.600 C 176.591 311.720,176.952 309.830,177.204 308.400 C 177.455 306.970,177.813 304.990,178.000 304.000 C 178.187 303.010,178.544 301.030,178.794 299.600 C 179.692 294.460,179.613 294.579,191.715 280.068 C 198.076 272.441,203.757 265.659,204.340 264.999 C 204.923 264.338,206.208 262.808,207.195 261.599 C 208.181 260.389,209.084 259.310,209.200 259.200 C 209.316 259.090,210.216 258.010,211.200 256.800 C 212.184 255.590,213.084 254.510,213.200 254.400 C 213.316 254.290,214.216 253.210,215.200 252.000 C 216.184 250.790,217.084 249.710,217.200 249.600 C 217.316 249.490,218.216 248.410,219.200 247.200 C 220.184 245.990,221.084 244.910,221.200 244.800 C 221.316 244.690,222.216 243.610,223.200 242.400 C 224.184 241.190,225.087 240.110,225.206 240.000 C 225.326 239.890,229.023 235.480,233.422 230.200 C 272.053 183.832,293.796 157.768,293.985 157.600 C 294.109 157.490,295.016 156.410,296.000 155.200 C 296.984 153.990,297.884 152.910,298.000 152.800 C 298.116 152.690,299.016 151.610,300.000 150.400 C 300.984 149.190,301.884 148.110,302.000 148.000 C 302.116 147.890,303.016 146.810,304.000 145.600 C 304.984 144.390,305.884 143.310,306.000 143.200 C 306.214 142.997,308.972 139.584,309.960 138.300 C 310.755 137.266,309.976 137.473,308.600 138.661 M163.800 139.863 C 162.045 140.785,160.000 142.845,160.000 143.691 C 160.000 144.589,158.914 145.074,158.293 144.453 C 157.624 143.784,156.798 143.893,154.900 144.898 C 152.783 146.020,152.708 145.509,155.875 151.522 C 157.346 154.315,159.279 157.995,160.171 159.700 C 162.016 163.231,161.823 163.141,164.643 161.761 C 168.262 159.991,168.308 160.713,164.056 152.615 C 161.859 148.430,162.150 145.600,164.776 145.600 C 166.480 145.600,167.011 146.344,171.697 155.302 C 172.774 157.361,172.807 157.366,175.601 155.936 C 179.104 154.143,179.280 155.123,173.524 144.400 C 170.993 139.686,167.361 137.991,163.800 139.863 M145.881 149.635 C 142.917 151.165,142.877 151.328,144.641 154.634 C 147.613 160.204,148.107 161.356,148.145 162.812 C 148.266 167.424,144.691 166.503,141.887 161.200 C 137.723 153.327,138.218 153.709,134.671 155.630 C 131.941 157.109,131.965 156.779,134.272 161.097 C 135.301 163.024,136.687 165.647,137.352 166.926 C 139.210 170.503,141.095 172.000,143.740 172.000 C 146.922 172.000,150.151 169.874,150.992 167.226 C 151.267 166.359,152.178 166.118,152.600 166.800 C 152.994 167.438,154.197 167.268,155.962 166.326 C 158.001 165.238,158.025 165.501,155.444 160.651 C 154.258 158.423,152.436 154.980,151.394 153.000 C 148.587 147.666,149.095 147.977,145.881 149.635 M123.000 161.574 C 121.097 162.428,119.470 163.982,118.809 165.578 C 118.349 166.689,118.248 166.727,116.259 166.521 C 112.851 166.170,108.872 168.581,108.157 171.431 C 107.876 172.550,107.500 172.643,106.657 171.800 C 105.854 170.997,105.604 171.031,103.450 172.234 C 101.047 173.578,100.710 172.317,106.222 182.600 C 107.284 184.580,108.584 187.054,109.111 188.098 C 110.383 190.616,110.351 190.609,113.255 189.032 C 116.475 187.283,116.453 187.633,113.681 182.290 C 110.709 176.562,110.394 175.169,111.764 173.800 C 113.535 172.029,114.799 173.149,117.922 179.253 C 121.074 185.415,120.667 185.109,123.616 183.530 C 126.606 181.928,126.766 181.604,125.615 179.466 C 121.156 171.180,120.615 169.064,122.623 167.748 C 124.416 166.573,125.122 167.398,129.679 176.000 C 130.553 177.650,131.326 179.058,131.396 179.128 C 131.782 179.518,136.781 176.520,136.790 175.893 C 136.801 175.136,132.572 166.841,130.834 164.210 C 128.710 160.996,126.184 160.146,123.000 161.574 M91.512 178.375 C 89.712 179.274,89.067 179.892,88.085 181.654 C 87.380 182.921,87.196 183.006,84.968 183.107 C 81.434 183.266,78.437 184.979,77.416 187.424 C 76.840 188.802,76.264 189.150,75.800 188.400 C 75.291 187.577,73.809 188.004,70.694 189.871 C 70.414 190.039,72.187 193.589,76.859 202.216 C 79.782 207.615,79.147 207.203,82.174 205.670 C 85.197 204.139,85.321 203.759,83.728 200.914 C 79.917 194.106,79.220 191.630,80.731 190.262 C 82.451 188.706,83.532 189.543,86.134 194.447 C 90.277 202.256,89.648 201.701,92.603 200.156 C 95.997 198.382,95.976 198.719,93.030 193.043 C 90.233 187.653,89.823 185.846,91.131 184.662 C 93.032 182.942,94.147 183.973,97.649 190.695 C 100.516 196.197,100.185 195.960,103.043 194.561 C 106.698 192.773,106.806 193.556,101.526 183.600 C 98.550 177.987,95.487 176.389,91.512 178.375 M60.175 195.147 C 54.581 197.056,51.465 202.247,53.251 206.681 C 56.877 215.688,64.249 217.670,70.679 211.369 C 77.129 205.048,68.810 192.200,60.175 195.147 M41.736 199.004 C 32.179 202.017,28.968 209.196,33.392 217.657 C 37.756 226.003,46.143 227.271,53.418 220.684 L 55.303 218.977 54.259 216.917 C 52.857 214.149,52.666 214.098,50.583 215.931 C 46.343 219.663,43.009 219.635,40.454 215.846 C 36.534 210.033,37.747 205.642,43.616 204.397 C 46.548 203.774,46.478 203.882,45.916 200.860 C 45.401 198.090,45.083 197.949,41.736 199.004 M63.959 201.415 C 67.097 204.988,67.175 209.600,64.098 209.600 C 62.337 209.600,59.200 205.130,59.200 202.620 C 59.200 200.019,62.091 199.287,63.959 201.415 " stroke="none" fill="#fafafb" fill-rule="evenodd"></path><path id="path1" d="M188.400 9.600 C 188.400 9.842,186.667 10.000,184.000 10.000 C 181.333 10.000,179.600 10.158,179.600 10.400 C 179.600 10.638,178.075 10.800,175.824 10.800 C 173.737 10.800,171.937 10.979,171.800 11.200 C 171.664 11.420,170.663 11.600,169.576 11.600 C 168.489 11.600,167.600 11.780,167.600 12.000 C 167.600 12.220,166.700 12.400,165.600 12.400 C 164.500 12.400,163.600 12.580,163.600 12.800 C 163.600 13.020,162.700 13.200,161.600 13.200 C 160.500 13.200,159.600 13.380,159.600 13.600 C 159.600 13.820,158.880 14.000,158.000 14.000 C 157.120 14.000,156.400 14.180,156.400 14.400 C 156.400 14.620,155.500 14.800,154.400 14.800 C 153.300 14.800,152.400 14.980,152.400 15.200 C 152.400 15.420,151.860 15.600,151.200 15.600 C 150.540 15.600,150.000 15.780,150.000 16.000 C 150.000 16.220,149.280 16.400,148.400 16.400 C 147.520 16.400,146.800 16.580,146.800 16.800 C 146.800 17.020,146.271 17.200,145.624 17.200 C 144.977 17.200,144.336 17.380,144.200 17.600 C 144.064 17.820,143.524 18.000,143.000 18.000 C 142.476 18.000,141.936 18.180,141.800 18.400 C 141.664 18.620,141.034 18.800,140.400 18.800 C 139.766 18.800,139.136 18.980,139.000 19.200 C 138.864 19.420,138.324 19.600,137.800 19.600 C 137.276 19.600,136.736 19.780,136.600 20.000 C 136.464 20.220,135.924 20.400,135.400 20.400 C 134.876 20.400,134.336 20.580,134.200 20.800 C 134.064 21.020,133.603 21.200,133.176 21.200 C 132.749 21.200,132.400 21.380,132.400 21.600 C 132.400 21.820,131.961 22.000,131.424 22.000 C 130.887 22.000,130.336 22.180,130.200 22.400 C 130.064 22.620,129.603 22.800,129.176 22.800 C 128.749 22.800,128.400 22.980,128.400 23.200 C 128.400 23.420,127.860 23.600,127.200 23.600 C 126.540 23.600,126.000 23.780,126.000 24.000 C 126.000 24.220,125.640 24.400,125.200 24.400 C 124.760 24.400,124.400 24.580,124.400 24.800 C 124.400 25.020,124.040 25.200,123.600 25.200 C 123.160 25.200,122.800 25.380,122.800 25.600 C 122.800 25.820,122.451 26.000,122.024 26.000 C 121.597 26.000,121.136 26.180,121.000 26.400 C 120.864 26.620,120.313 26.800,119.776 26.800 C 119.239 26.800,118.800 26.980,118.800 27.200 C 118.800 27.420,118.440 27.600,118.000 27.600 C 117.560 27.600,117.200 27.780,117.200 28.000 C 117.200 28.220,116.840 28.400,116.400 28.400 C 115.960 28.400,115.600 28.580,115.600 28.800 C 115.600 29.020,115.240 29.200,114.800 29.200 C 114.360 29.200,114.000 29.380,114.000 29.600 C 114.000 29.820,113.640 30.000,113.200 30.000 C 112.760 30.000,112.400 30.180,112.400 30.400 C 112.400 30.620,112.040 30.800,111.600 30.800 C 111.160 30.800,110.800 30.980,110.800 31.200 C 110.800 31.420,110.440 31.600,110.000 31.600 C 109.560 31.600,109.200 31.780,109.200 32.000 C 109.200 32.220,108.964 32.400,108.675 32.400 C 108.387 32.400,107.764 32.760,107.292 33.200 C 106.820 33.640,106.156 34.000,105.817 34.000 C 105.478 34.000,105.200 34.180,105.200 34.400 C 105.200 34.620,104.840 34.800,104.400 34.800 C 103.960 34.800,103.600 34.980,103.600 35.200 C 103.600 35.420,103.364 35.600,103.075 35.600 C 102.787 35.600,102.164 35.960,101.692 36.400 C 101.220 36.840,100.638 37.200,100.400 37.200 C 100.162 37.200,99.580 37.560,99.108 38.000 C 98.636 38.440,98.013 38.800,97.725 38.800 C 97.436 38.800,97.200 38.980,97.200 39.200 C 97.200 39.420,96.880 39.600,96.488 39.600 C 96.097 39.600,95.517 39.960,95.200 40.400 C 94.883 40.840,94.343 41.200,94.000 41.200 C 93.657 41.200,93.117 41.560,92.800 42.000 C 92.483 42.440,91.969 42.800,91.659 42.800 C 91.348 42.800,90.803 43.116,90.447 43.503 C 90.091 43.889,89.305 44.460,88.700 44.770 C 88.095 45.081,87.600 45.485,87.600 45.668 C 87.600 45.850,87.352 46.000,87.048 46.000 C 86.745 46.000,85.755 46.720,84.848 47.600 C 83.941 48.480,83.019 49.200,82.800 49.200 C 82.581 49.200,81.659 49.920,80.752 50.800 C 79.845 51.680,78.946 52.400,78.754 52.400 C 78.562 52.400,77.308 53.480,75.968 54.800 C 74.627 56.120,73.365 57.200,73.163 57.200 C 72.682 57.200,57.200 72.682,57.200 73.163 C 57.200 73.365,56.120 74.627,54.800 75.968 C 53.480 77.308,52.400 78.598,52.400 78.834 C 52.400 79.070,51.680 79.954,50.800 80.800 C 49.920 81.646,49.200 82.549,49.200 82.808 C 49.200 83.067,48.660 83.783,48.000 84.400 C 47.340 85.017,46.800 85.720,46.800 85.964 C 46.800 86.208,46.260 86.972,45.600 87.663 C 44.940 88.354,44.400 89.122,44.400 89.371 C 44.400 89.620,44.040 90.083,43.600 90.400 C 43.160 90.717,42.800 91.257,42.800 91.600 C 42.800 91.943,42.440 92.483,42.000 92.800 C 41.560 93.117,41.200 93.657,41.200 94.000 C 41.200 94.343,40.840 94.883,40.400 95.200 C 39.960 95.517,39.600 96.057,39.600 96.400 C 39.600 96.743,39.240 97.283,38.800 97.600 C 38.360 97.917,38.000 98.414,38.000 98.705 C 38.000 98.996,37.640 99.620,37.200 100.092 C 36.760 100.564,36.400 101.187,36.400 101.475 C 36.400 101.764,36.220 102.000,36.000 102.000 C 35.780 102.000,35.600 102.360,35.600 102.800 C 35.600 103.240,35.420 103.600,35.200 103.600 C 34.980 103.600,34.800 103.878,34.800 104.217 C 34.800 104.556,34.440 105.220,34.000 105.692 C 33.560 106.164,33.200 106.787,33.200 107.075 C 33.200 107.364,33.020 107.600,32.800 107.600 C 32.580 107.600,32.400 107.960,32.400 108.400 C 32.400 108.840,32.220 109.200,32.000 109.200 C 31.780 109.200,31.600 109.560,31.600 110.000 C 31.600 110.440,31.420 110.800,31.200 110.800 C 30.980 110.800,30.800 111.160,30.800 111.600 C 30.800 112.040,30.620 112.400,30.400 112.400 C 30.180 112.400,30.000 112.760,30.000 113.200 C 30.000 113.640,29.820 114.000,29.600 114.000 C 29.380 114.000,29.200 114.360,29.200 114.800 C 29.200 115.240,29.020 115.600,28.800 115.600 C 28.580 115.600,28.400 115.960,28.400 116.400 C 28.400 116.840,28.220 117.200,28.000 117.200 C 27.780 117.200,27.600 117.560,27.600 118.000 C 27.600 118.440,27.420 118.800,27.200 118.800 C 26.980 118.800,26.800 119.160,26.800 119.600 C 26.800 120.040,26.620 120.400,26.400 120.400 C 26.180 120.400,26.000 120.839,26.000 121.376 C 26.000 121.913,25.820 122.464,25.600 122.600 C 25.380 122.736,25.200 123.197,25.200 123.624 C 25.200 124.051,25.020 124.400,24.800 124.400 C 24.580 124.400,24.400 124.760,24.400 125.200 C 24.400 125.640,24.220 126.000,24.000 126.000 C 23.780 126.000,23.600 126.540,23.600 127.200 C 23.600 127.860,23.420 128.400,23.200 128.400 C 22.980 128.400,22.800 128.760,22.800 129.200 C 22.800 129.640,22.620 130.000,22.400 130.000 C 22.180 130.000,22.000 130.540,22.000 131.200 C 22.000 131.860,21.820 132.400,21.600 132.400 C 21.380 132.400,21.200 132.749,21.200 133.176 C 21.200 133.603,21.020 134.064,20.800 134.200 C 20.580 134.336,20.400 134.887,20.400 135.424 C 20.400 135.961,20.220 136.400,20.000 136.400 C 19.780 136.400,19.600 136.940,19.600 137.600 C 19.600 138.260,19.420 138.800,19.200 138.800 C 18.980 138.800,18.800 139.340,18.800 140.000 C 18.800 140.660,18.620 141.200,18.400 141.200 C 18.180 141.200,18.000 141.740,18.000 142.400 C 18.000 143.060,17.820 143.600,17.600 143.600 C 17.380 143.600,17.200 144.320,17.200 145.200 C 17.200 146.080,17.020 146.800,16.800 146.800 C 16.580 146.800,16.400 147.419,16.400 148.176 C 16.400 148.933,16.220 149.664,16.000 149.800 C 15.780 149.936,15.600 150.577,15.600 151.224 C 15.600 151.871,15.420 152.400,15.200 152.400 C 14.980 152.400,14.800 153.109,14.800 153.976 C 14.800 154.843,14.620 155.664,14.400 155.800 C 14.180 155.936,14.000 156.847,14.000 157.824 C 14.000 158.801,13.820 159.600,13.600 159.600 C 13.380 159.600,13.200 160.399,13.200 161.376 C 13.200 162.353,13.020 163.264,12.800 163.400 C 12.580 163.536,12.400 164.537,12.400 165.624 C 12.400 166.711,12.220 167.600,12.000 167.600 C 11.778 167.600,11.600 168.659,11.600 169.976 C 11.600 171.283,11.420 172.464,11.200 172.600 C 10.980 172.736,10.800 174.176,10.800 175.800 C 10.800 177.424,10.620 178.864,10.400 179.000 C 10.171 179.141,10.000 181.196,10.000 183.800 C 10.000 186.404,9.829 188.459,9.600 188.600 C 9.055 188.937,9.055 211.063,9.600 211.400 C 9.831 211.542,10.000 213.671,10.000 216.424 C 10.000 219.341,10.156 221.200,10.400 221.200 C 10.631 221.200,10.800 222.459,10.800 224.176 C 10.800 225.813,10.980 227.264,11.200 227.400 C 11.420 227.536,11.600 228.717,11.600 230.024 C 11.600 231.341,11.778 232.400,12.000 232.400 C 12.222 232.400,12.400 233.467,12.400 234.800 C 12.400 236.133,12.578 237.200,12.800 237.200 C 13.020 237.200,13.200 237.920,13.200 238.800 C 13.200 239.680,13.380 240.400,13.600 240.400 C 13.820 240.400,14.000 241.300,14.000 242.400 C 14.000 243.500,14.180 244.400,14.400 244.400 C 14.620 244.400,14.800 245.120,14.800 246.000 C 14.800 246.880,14.980 247.600,15.200 247.600 C 15.420 247.600,15.600 248.219,15.600 248.976 C 15.600 249.733,15.780 250.464,16.000 250.600 C 16.220 250.736,16.400 251.377,16.400 252.024 C 16.400 252.671,16.580 253.200,16.800 253.200 C 17.020 253.200,17.200 253.920,17.200 254.800 C 17.200 255.680,17.380 256.400,17.600 256.400 C 17.820 256.400,18.000 256.940,18.000 257.600 C 18.000 258.260,18.180 258.800,18.400 258.800 C 18.620 258.800,18.800 259.340,18.800 260.000 C 18.800 260.660,18.980 261.200,19.200 261.200 C 19.420 261.200,19.600 261.740,19.600 262.400 C 19.600 263.060,19.780 263.600,20.000 263.600 C 20.220 263.600,20.400 264.039,20.400 264.576 C 20.400 265.113,20.580 265.664,20.800 265.800 C 21.020 265.936,21.200 266.397,21.200 266.824 C 21.200 267.251,21.380 267.600,21.600 267.600 C 21.820 267.600,22.000 268.140,22.000 268.800 C 22.000 269.460,22.180 270.000,22.400 270.000 C 22.620 270.000,22.800 270.349,22.800 270.776 C 22.800 271.203,22.980 271.664,23.200 271.800 C 23.420 271.936,23.600 272.487,23.600 273.024 C 23.600 273.561,23.780 274.000,24.000 274.000 C 24.220 274.000,24.400 274.360,24.400 274.800 C 24.400 275.240,24.580 275.600,24.800 275.600 C 25.020 275.600,25.200 275.960,25.200 276.400 C 25.200 276.840,25.380 277.200,25.600 277.200 C 25.820 277.200,26.000 277.639,26.000 278.176 C 26.000 278.713,26.180 279.264,26.400 279.400 C 26.620 279.536,26.800 279.997,26.800 280.424 C 26.800 280.851,26.980 281.200,27.200 281.200 C 27.420 281.200,27.600 281.560,27.600 282.000 C 27.600 282.440,27.780 282.800,28.000 282.800 C 28.220 282.800,28.400 283.160,28.400 283.600 C 28.400 284.040,28.580 284.400,28.800 284.400 C 29.020 284.400,29.200 284.760,29.200 285.200 C 29.200 285.640,29.380 286.000,29.600 286.000 C 29.820 286.000,30.000 286.360,30.000 286.800 C 30.000 287.240,30.180 287.600,30.400 287.600 C 30.620 287.600,30.800 287.960,30.800 288.400 C 30.800 288.840,30.980 289.200,31.200 289.200 C 31.420 289.200,31.600 289.560,31.600 290.000 C 31.600 290.440,31.780 290.800,32.000 290.800 C 32.220 290.800,32.400 291.036,32.400 291.325 C 32.400 291.613,32.760 292.236,33.200 292.708 C 33.640 293.180,34.000 293.844,34.000 294.183 C 34.000 294.522,34.180 294.800,34.400 294.800 C 34.620 294.800,34.800 295.160,34.800 295.600 C 34.800 296.040,34.980 296.400,35.200 296.400 C 35.420 296.400,35.600 296.636,35.600 296.925 C 35.600 297.213,35.960 297.836,36.400 298.308 C 36.840 298.780,37.200 299.444,37.200 299.783 C 37.200 300.122,37.380 300.400,37.600 300.400 C 37.820 300.400,38.000 300.636,38.000 300.925 C 38.000 301.213,38.360 301.836,38.800 302.308 C 39.240 302.780,39.600 303.404,39.600 303.695 C 39.600 303.986,39.960 304.483,40.400 304.800 C 40.840 305.117,41.200 305.657,41.200 306.000 C 41.200 306.343,41.560 306.883,42.000 307.200 C 42.440 307.517,42.800 308.057,42.800 308.400 C 42.800 308.743,43.160 309.283,43.600 309.600 C 44.040 309.917,44.400 310.380,44.400 310.629 C 44.400 310.878,44.940 311.646,45.600 312.337 C 46.260 313.028,46.800 313.792,46.800 314.036 C 46.800 314.280,47.340 314.983,48.000 315.600 C 48.660 316.217,49.200 316.919,49.200 317.160 C 49.200 317.402,49.920 318.341,50.800 319.248 C 51.680 320.155,52.400 321.054,52.400 321.246 C 52.400 321.438,53.480 322.692,54.800 324.032 C 56.120 325.373,57.200 326.639,57.200 326.846 C 57.200 327.340,73.518 343.600,74.014 343.600 C 74.223 343.600,75.492 344.680,76.832 346.000 C 78.173 347.320,79.452 348.400,79.674 348.400 C 79.897 348.400,80.583 348.940,81.200 349.600 C 81.817 350.260,82.519 350.800,82.760 350.800 C 83.002 350.800,83.941 351.520,84.848 352.400 C 85.755 353.280,86.705 354.000,86.960 354.000 C 87.215 354.000,87.683 354.360,88.000 354.800 C 88.317 355.240,88.857 355.600,89.200 355.600 C 89.543 355.600,90.083 355.960,90.400 356.400 C 90.717 356.840,91.231 357.200,91.541 357.200 C 91.852 357.200,92.397 357.516,92.753 357.903 C 93.109 358.289,93.895 358.860,94.500 359.170 C 95.105 359.481,95.600 359.885,95.600 360.068 C 95.600 360.250,95.920 360.400,96.312 360.400 C 96.703 360.400,97.283 360.760,97.600 361.200 C 97.917 361.640,98.414 362.000,98.705 362.000 C 98.996 362.000,99.620 362.360,100.092 362.800 C 100.564 363.240,101.187 363.600,101.475 363.600 C 101.764 363.600,102.000 363.780,102.000 364.000 C 102.000 364.220,102.360 364.400,102.800 364.400 C 103.240 364.400,103.600 364.580,103.600 364.800 C 103.600 365.020,103.878 365.200,104.217 365.200 C 104.556 365.200,105.220 365.560,105.692 366.000 C 106.164 366.440,106.787 366.800,107.075 366.800 C 107.364 366.800,107.600 366.980,107.600 367.200 C 107.600 367.420,107.960 367.600,108.400 367.600 C 108.840 367.600,109.200 367.780,109.200 368.000 C 109.200 368.220,109.560 368.400,110.000 368.400 C 110.440 368.400,110.800 368.580,110.800 368.800 C 110.800 369.020,111.160 369.200,111.600 369.200 C 112.040 369.200,112.400 369.380,112.400 369.600 C 112.400 369.820,112.760 370.000,113.200 370.000 C 113.640 370.000,114.000 370.180,114.000 370.400 C 114.000 370.620,114.360 370.800,114.800 370.800 C 115.240 370.800,115.600 370.980,115.600 371.200 C 115.600 371.420,115.960 371.600,116.400 371.600 C 116.840 371.600,117.200 371.780,117.200 372.000 C 117.200 372.220,117.560 372.400,118.000 372.400 C 118.440 372.400,118.800 372.580,118.800 372.800 C 118.800 373.020,119.160 373.200,119.600 373.200 C 120.040 373.200,120.400 373.380,120.400 373.600 C 120.400 373.820,120.839 374.000,121.376 374.000 C 121.913 374.000,122.464 374.180,122.600 374.400 C 122.736 374.620,123.197 374.800,123.624 374.800 C 124.051 374.800,124.400 374.980,124.400 375.200 C 124.400 375.420,124.760 375.600,125.200 375.600 C 125.640 375.600,126.000 375.780,126.000 376.000 C 126.000 376.220,126.540 376.400,127.200 376.400 C 127.860 376.400,128.400 376.580,128.400 376.800 C 128.400 377.020,128.749 377.200,129.176 377.200 C 129.603 377.200,130.064 377.380,130.200 377.600 C 130.336 377.820,130.887 378.000,131.424 378.000 C 131.961 378.000,132.400 378.180,132.400 378.400 C 132.400 378.620,132.940 378.800,133.600 378.800 C 134.260 378.800,134.800 378.980,134.800 379.200 C 134.800 379.420,135.239 379.600,135.776 379.600 C 136.313 379.600,136.864 379.780,137.000 380.000 C 137.136 380.220,137.676 380.400,138.200 380.400 C 138.724 380.400,139.264 380.580,139.400 380.800 C 139.536 381.020,140.076 381.200,140.600 381.200 C 141.124 381.200,141.664 381.380,141.800 381.600 C 141.936 381.820,142.476 382.000,143.000 382.000 C 143.524 382.000,144.064 382.180,144.200 382.400 C 144.336 382.620,144.977 382.800,145.624 382.800 C 146.271 382.800,146.800 382.980,146.800 383.200 C 146.800 383.420,147.520 383.600,148.400 383.600 C 149.280 383.600,150.000 383.780,150.000 384.000 C 150.000 384.220,150.529 384.400,151.176 384.400 C 151.823 384.400,152.464 384.580,152.600 384.800 C 152.736 385.020,153.647 385.200,154.624 385.200 C 155.601 385.200,156.400 385.380,156.400 385.600 C 156.400 385.820,157.120 386.000,158.000 386.000 C 158.880 386.000,159.600 386.180,159.600 386.400 C 159.600 386.620,160.500 386.800,161.600 386.800 C 162.700 386.800,163.600 386.980,163.600 387.200 C 163.600 387.422,164.667 387.600,166.000 387.600 C 167.333 387.600,168.400 387.778,168.400 388.000 C 168.400 388.222,169.467 388.400,170.800 388.400 C 172.133 388.400,173.200 388.578,173.200 388.800 C 173.200 389.033,174.533 389.200,176.400 389.200 C 178.267 389.200,179.600 389.367,179.600 389.600 C 179.600 389.848,181.733 390.000,185.200 390.000 C 188.667 390.000,190.800 390.152,190.800 390.400 C 190.800 390.655,194.133 390.800,200.000 390.800 C 205.867 390.800,209.200 390.655,209.200 390.400 C 209.200 390.152,211.333 390.000,214.800 390.000 C 218.267 390.000,220.400 389.848,220.400 389.600 C 220.400 389.372,221.592 389.200,223.176 389.200 C 224.703 389.200,226.064 389.020,226.200 388.800 C 226.336 388.580,227.607 388.400,229.024 388.400 C 230.475 388.400,231.600 388.225,231.600 388.000 C 231.600 387.778,232.667 387.600,234.000 387.600 C 235.333 387.600,236.400 387.422,236.400 387.200 C 236.400 386.980,237.300 386.800,238.400 386.800 C 239.500 386.800,240.400 386.620,240.400 386.400 C 240.400 386.180,241.120 386.000,242.000 386.000 C 242.880 386.000,243.600 385.820,243.600 385.600 C 243.600 385.380,244.399 385.200,245.376 385.200 C 246.353 385.200,247.264 385.020,247.400 384.800 C 247.536 384.580,248.177 384.400,248.824 384.400 C 249.471 384.400,250.000 384.220,250.000 384.000 C 250.000 383.780,250.720 383.600,251.600 383.600 C 252.480 383.600,253.200 383.420,253.200 383.200 C 253.200 382.980,253.729 382.800,254.376 382.800 C 255.023 382.800,255.664 382.620,255.800 382.400 C 255.936 382.180,256.476 382.000,257.000 382.000 C 257.524 382.000,258.064 381.820,258.200 381.600 C 258.336 381.380,258.876 381.200,259.400 381.200 C 259.924 381.200,260.464 381.020,260.600 380.800 C 260.736 380.580,261.287 380.400,261.824 380.400 C 262.361 380.400,262.800 380.220,262.800 380.000 C 262.800 379.780,263.340 379.600,264.000 379.600 C 264.660 379.600,265.200 379.420,265.200 379.200 C 265.200 378.980,265.740 378.800,266.400 378.800 C 267.060 378.800,267.600 378.620,267.600 378.400 C 267.600 378.180,268.039 378.000,268.576 378.000 C 269.113 378.000,269.664 377.820,269.800 377.600 C 269.936 377.380,270.397 377.200,270.824 377.200 C 271.251 377.200,271.600 377.020,271.600 376.800 C 271.600 376.580,272.140 376.400,272.800 376.400 C 273.460 376.400,274.000 376.220,274.000 376.000 C 274.000 375.780,274.360 375.600,274.800 375.600 C 275.240 375.600,275.600 375.420,275.600 375.200 C 275.600 374.980,275.949 374.800,276.376 374.800 C 276.803 374.800,277.264 374.620,277.400 374.400 C 277.536 374.180,278.087 374.000,278.624 374.000 C 279.161 374.000,279.600 373.820,279.600 373.600 C 279.600 373.380,279.960 373.200,280.400 373.200 C 280.840 373.200,281.200 373.020,281.200 372.800 C 281.200 372.580,281.560 372.400,282.000 372.400 C 282.440 372.400,282.800 372.220,282.800 372.000 C 282.800 371.780,283.160 371.600,283.600 371.600 C 284.040 371.600,284.400 371.420,284.400 371.200 C 284.400 370.980,284.760 370.800,285.200 370.800 C 285.640 370.800,286.000 370.620,286.000 370.400 C 286.000 370.180,286.360 370.000,286.800 370.000 C 287.240 370.000,287.600 369.820,287.600 369.600 C 287.600 369.380,287.960 369.200,288.400 369.200 C 288.840 369.200,289.200 369.020,289.200 368.800 C 289.200 368.580,289.560 368.400,290.000 368.400 C 290.440 368.400,290.800 368.220,290.800 368.000 C 290.800 367.780,291.160 367.600,291.600 367.600 C 292.040 367.600,292.400 367.420,292.400 367.200 C 292.400 366.980,292.636 366.800,292.925 366.800 C 293.213 366.800,293.836 366.440,294.308 366.000 C 294.780 365.560,295.444 365.200,295.783 365.200 C 296.122 365.200,296.400 365.020,296.400 364.800 C 296.400 364.580,296.678 364.400,297.017 364.400 C 297.356 364.400,298.020 364.040,298.492 363.600 C 298.964 363.160,299.587 362.800,299.875 362.800 C 300.164 362.800,300.400 362.620,300.400 362.400 C 300.400 362.180,300.720 362.000,301.112 362.000 C 301.503 362.000,302.083 361.640,302.400 361.200 C 302.717 360.760,303.297 360.400,303.688 360.400 C 304.080 360.400,304.400 360.250,304.400 360.068 C 304.400 359.885,304.895 359.481,305.500 359.170 C 306.105 358.860,306.891 358.289,307.247 357.903 C 307.603 357.516,308.122 357.200,308.400 357.200 C 308.678 357.200,309.197 356.884,309.553 356.497 C 309.909 356.111,310.695 355.540,311.300 355.230 C 311.905 354.919,312.400 354.515,312.400 354.332 C 312.400 354.150,312.648 354.000,312.952 354.000 C 313.255 354.000,314.245 353.280,315.152 352.400 C 316.059 351.520,316.998 350.800,317.240 350.800 C 317.481 350.800,318.183 350.260,318.800 349.600 C 319.417 348.940,320.103 348.400,320.326 348.400 C 320.548 348.400,321.827 347.320,323.168 346.000 C 324.508 344.680,325.777 343.600,325.986 343.600 C 326.482 343.600,342.800 327.340,342.800 326.846 C 342.800 326.639,343.880 325.373,345.200 324.032 C 346.520 322.692,347.600 321.402,347.600 321.166 C 347.600 320.930,348.320 320.046,349.200 319.200 C 350.080 318.354,350.800 317.451,350.800 317.192 C 350.800 316.933,351.340 316.217,352.000 315.600 C 352.660 314.983,353.200 314.280,353.200 314.036 C 353.200 313.792,353.740 313.028,354.400 312.337 C 355.060 311.646,355.600 310.878,355.600 310.629 C 355.600 310.380,355.960 309.917,356.400 309.600 C 356.840 309.283,357.200 308.743,357.200 308.400 C 357.200 308.057,357.560 307.517,358.000 307.200 C 358.440 306.883,358.800 306.343,358.800 306.000 C 358.800 305.657,359.160 305.117,359.600 304.800 C 360.040 304.483,360.400 303.986,360.400 303.695 C 360.400 303.404,360.760 302.780,361.200 302.308 C 361.640 301.836,362.000 301.213,362.000 300.925 C 362.000 300.636,362.180 300.400,362.400 300.400 C 362.620 300.400,362.800 300.122,362.800 299.783 C 362.800 299.444,363.160 298.780,363.600 298.308 C 364.040 297.836,364.400 297.213,364.400 296.925 C 364.400 296.636,364.580 296.400,364.800 296.400 C 365.020 296.400,365.200 296.040,365.200 295.600 C 365.200 295.160,365.380 294.800,365.600 294.800 C 365.820 294.800,366.000 294.522,366.000 294.183 C 366.000 293.844,366.360 293.180,366.800 292.708 C 367.240 292.236,367.600 291.613,367.600 291.325 C 367.600 291.036,367.780 290.800,368.000 290.800 C 368.220 290.800,368.400 290.440,368.400 290.000 C 368.400 289.560,368.580 289.200,368.800 289.200 C 369.020 289.200,369.200 288.840,369.200 288.400 C 369.200 287.960,369.380 287.600,369.600 287.600 C 369.820 287.600,370.000 287.240,370.000 286.800 C 370.000 286.360,370.180 286.000,370.400 286.000 C 370.620 286.000,370.800 285.640,370.800 285.200 C 370.800 284.760,370.980 284.400,371.200 284.400 C 371.420 284.400,371.600 284.040,371.600 283.600 C 371.600 283.160,371.780 282.800,372.000 282.800 C 372.220 282.800,372.400 282.440,372.400 282.000 C 372.400 281.560,372.580 281.200,372.800 281.200 C 373.020 281.200,373.200 280.851,373.200 280.424 C 373.200 279.997,373.380 279.536,373.600 279.400 C 373.820 279.264,374.000 278.713,374.000 278.176 C 374.000 277.639,374.180 277.200,374.400 277.200 C 374.620 277.200,374.800 276.840,374.800 276.400 C 374.800 275.960,374.980 275.600,375.200 275.600 C 375.420 275.600,375.600 275.240,375.600 274.800 C 375.600 274.360,375.780 274.000,376.000 274.000 C 376.220 274.000,376.400 273.460,376.400 272.800 C 376.400 272.140,376.580 271.600,376.800 271.600 C 377.020 271.600,377.200 271.240,377.200 270.800 C 377.200 270.360,377.380 270.000,377.600 270.000 C 377.820 270.000,378.000 269.460,378.000 268.800 C 378.000 268.140,378.180 267.600,378.400 267.600 C 378.620 267.600,378.800 267.251,378.800 266.824 C 378.800 266.397,378.980 265.936,379.200 265.800 C 379.420 265.664,379.600 265.113,379.600 264.576 C 379.600 264.039,379.780 263.600,380.000 263.600 C 380.220 263.600,380.400 263.060,380.400 262.400 C 380.400 261.740,380.580 261.200,380.800 261.200 C 381.020 261.200,381.200 260.660,381.200 260.000 C 381.200 259.340,381.380 258.800,381.600 258.800 C 381.820 258.800,382.000 258.260,382.000 257.600 C 382.000 256.940,382.180 256.400,382.400 256.400 C 382.620 256.400,382.800 255.680,382.800 254.800 C 382.800 253.920,382.980 253.200,383.200 253.200 C 383.420 253.200,383.600 252.671,383.600 252.024 C 383.600 251.377,383.780 250.736,384.000 250.600 C 384.220 250.464,384.400 249.733,384.400 248.976 C 384.400 248.219,384.580 247.600,384.800 247.600 C 385.020 247.600,385.200 246.891,385.200 246.024 C 385.200 245.157,385.380 244.336,385.600 244.200 C 385.820 244.064,386.000 243.153,386.000 242.176 C 386.000 241.199,386.180 240.400,386.400 240.400 C 386.620 240.400,386.800 239.601,386.800 238.624 C 386.800 237.647,386.980 236.736,387.200 236.600 C 387.420 236.464,387.600 235.463,387.600 234.376 C 387.600 233.289,387.780 232.400,388.000 232.400 C 388.222 232.400,388.400 231.341,388.400 230.024 C 388.400 228.717,388.580 227.536,388.800 227.400 C 389.020 227.264,389.200 225.813,389.200 224.176 C 389.200 222.459,389.369 221.200,389.600 221.200 C 389.844 221.200,390.000 219.341,390.000 216.424 C 390.000 213.671,390.169 211.542,390.400 211.400 C 390.651 211.245,390.800 207.004,390.800 200.000 C 390.800 192.996,390.651 188.755,390.400 188.600 C 390.171 188.459,390.000 186.404,390.000 183.800 C 390.000 181.196,389.829 179.141,389.600 179.000 C 389.380 178.864,389.200 177.424,389.200 175.800 C 389.200 174.176,389.020 172.736,388.800 172.600 C 388.580 172.464,388.400 171.283,388.400 169.976 C 388.400 168.659,388.222 167.600,388.000 167.600 C 387.780 167.600,387.600 166.711,387.600 165.624 C 387.600 164.537,387.420 163.536,387.200 163.400 C 386.980 163.264,386.800 162.353,386.800 161.376 C 386.800 160.399,386.620 159.600,386.400 159.600 C 386.180 159.600,386.000 158.700,386.000 157.600 C 386.000 156.500,385.820 155.600,385.600 155.600 C 385.380 155.600,385.200 154.880,385.200 154.000 C 385.200 153.120,385.020 152.400,384.800 152.400 C 384.580 152.400,384.400 151.871,384.400 151.224 C 384.400 150.577,384.220 149.936,384.000 149.800 C 383.780 149.664,383.600 148.933,383.600 148.176 C 383.600 147.419,383.420 146.800,383.200 146.800 C 382.980 146.800,382.800 146.181,382.800 145.424 C 382.800 144.667,382.620 143.936,382.400 143.800 C 382.180 143.664,382.000 143.124,382.000 142.600 C 382.000 142.076,381.820 141.536,381.600 141.400 C 381.380 141.264,381.200 140.724,381.200 140.200 C 381.200 139.676,381.020 139.136,380.800 139.000 C 380.580 138.864,380.400 138.223,380.400 137.576 C 380.400 136.929,380.220 136.400,380.000 136.400 C 379.780 136.400,379.600 135.961,379.600 135.424 C 379.600 134.887,379.420 134.336,379.200 134.200 C 378.980 134.064,378.800 133.603,378.800 133.176 C 378.800 132.749,378.620 132.400,378.400 132.400 C 378.180 132.400,378.000 131.860,378.000 131.200 C 378.000 130.540,377.820 130.000,377.600 130.000 C 377.380 130.000,377.200 129.640,377.200 129.200 C 377.200 128.760,377.020 128.400,376.800 128.400 C 376.580 128.400,376.400 127.860,376.400 127.200 C 376.400 126.540,376.220 126.000,376.000 126.000 C 375.780 126.000,375.600 125.640,375.600 125.200 C 375.600 124.760,375.420 124.400,375.200 124.400 C 374.980 124.400,374.800 124.051,374.800 123.624 C 374.800 123.197,374.620 122.736,374.400 122.600 C 374.180 122.464,374.000 121.913,374.000 121.376 C 374.000 120.839,373.820 120.400,373.600 120.400 C 373.380 120.400,373.200 120.040,373.200 119.600 C 373.200 119.160,373.020 118.800,372.800 118.800 C 372.580 118.800,372.400 118.440,372.400 118.000 C 372.400 117.560,372.220 117.200,372.000 117.200 C 371.780 117.200,371.600 116.840,371.600 116.400 C 371.600 115.960,371.420 115.600,371.200 115.600 C 370.980 115.600,370.800 115.240,370.800 114.800 C 370.800 114.360,370.620 114.000,370.400 114.000 C 370.180 114.000,370.000 113.640,370.000 113.200 C 370.000 112.760,369.820 112.400,369.600 112.400 C 369.380 112.400,369.200 112.040,369.200 111.600 C 369.200 111.160,369.020 110.800,368.800 110.800 C 368.580 110.800,368.400 110.440,368.400 110.000 C 368.400 109.560,368.220 109.200,368.000 109.200 C 367.780 109.200,367.600 108.840,367.600 108.400 C 367.600 107.960,367.420 107.600,367.200 107.600 C 366.980 107.600,366.800 107.364,366.800 107.075 C 366.800 106.787,366.440 106.164,366.000 105.692 C 365.560 105.220,365.200 104.556,365.200 104.217 C 365.200 103.878,365.020 103.600,364.800 103.600 C 364.580 103.600,364.400 103.240,364.400 102.800 C 364.400 102.360,364.220 102.000,364.000 102.000 C 363.780 102.000,363.600 101.764,363.600 101.475 C 363.600 101.187,363.285 100.602,362.900 100.175 C 362.515 99.749,361.945 98.905,361.632 98.300 C 361.320 97.695,360.915 97.200,360.732 97.200 C 360.550 97.200,360.400 96.880,360.400 96.488 C 360.400 96.097,360.040 95.517,359.600 95.200 C 359.160 94.883,358.800 94.343,358.800 94.000 C 358.800 93.657,358.440 93.117,358.000 92.800 C 357.560 92.483,357.200 91.943,357.200 91.600 C 357.200 91.257,356.840 90.717,356.400 90.400 C 355.960 90.083,355.600 89.620,355.600 89.371 C 355.600 89.122,355.060 88.354,354.400 87.663 C 353.740 86.972,353.200 86.208,353.200 85.964 C 353.200 85.720,352.660 85.017,352.000 84.400 C 351.340 83.783,350.800 83.103,350.800 82.888 C 350.800 82.673,350.080 81.755,349.200 80.848 C 348.320 79.941,347.600 79.020,347.600 78.802 C 347.600 78.584,346.520 77.308,345.200 75.968 C 343.880 74.627,342.800 73.365,342.800 73.163 C 342.800 72.682,327.318 57.200,326.837 57.200 C 326.635 57.200,325.373 56.120,324.032 54.800 C 322.692 53.480,321.454 52.400,321.281 52.400 C 321.109 52.400,320.172 51.680,319.200 50.800 C 318.228 49.920,317.272 49.200,317.076 49.200 C 316.881 49.200,316.217 48.660,315.600 48.000 C 314.983 47.340,314.326 46.800,314.140 46.799 C 313.953 46.799,313.170 46.259,312.400 45.600 C 311.630 44.941,310.815 44.401,310.588 44.401 C 310.362 44.400,309.917 44.040,309.600 43.600 C 309.283 43.160,308.743 42.800,308.400 42.800 C 308.057 42.800,307.517 42.440,307.200 42.000 C 306.883 41.560,306.343 41.200,306.000 41.200 C 305.657 41.200,305.117 40.840,304.800 40.400 C 304.483 39.960,303.903 39.600,303.512 39.600 C 303.120 39.600,302.800 39.420,302.800 39.200 C 302.800 38.980,302.564 38.800,302.275 38.800 C 301.987 38.800,301.364 38.440,300.892 38.000 C 300.420 37.560,299.838 37.200,299.600 37.200 C 299.362 37.200,298.780 36.840,298.308 36.400 C 297.836 35.960,297.213 35.600,296.925 35.600 C 296.636 35.600,296.400 35.420,296.400 35.200 C 296.400 34.980,296.040 34.800,295.600 34.800 C 295.160 34.800,294.800 34.620,294.800 34.400 C 294.800 34.180,294.522 34.000,294.183 34.000 C 293.844 34.000,293.180 33.640,292.708 33.200 C 292.236 32.760,291.613 32.400,291.325 32.400 C 291.036 32.400,290.800 32.220,290.800 32.000 C 290.800 31.780,290.440 31.600,290.000 31.600 C 289.560 31.600,289.200 31.420,289.200 31.200 C 289.200 30.980,288.840 30.800,288.400 30.800 C 287.960 30.800,287.600 30.620,287.600 30.400 C 287.600 30.180,287.240 30.000,286.800 30.000 C 286.360 30.000,286.000 29.820,286.000 29.600 C 286.000 29.380,285.640 29.200,285.200 29.200 C 284.760 29.200,284.400 29.020,284.400 28.800 C 284.400 28.580,284.040 28.400,283.600 28.400 C 283.160 28.400,282.800 28.220,282.800 28.000 C 282.800 27.780,282.440 27.600,282.000 27.600 C 281.560 27.600,281.200 27.420,281.200 27.200 C 281.200 26.980,280.761 26.800,280.224 26.800 C 279.687 26.800,279.136 26.620,279.000 26.400 C 278.864 26.180,278.403 26.000,277.976 26.000 C 277.549 26.000,277.200 25.820,277.200 25.600 C 277.200 25.380,276.840 25.200,276.400 25.200 C 275.960 25.200,275.600 25.020,275.600 24.800 C 275.600 24.580,275.240 24.400,274.800 24.400 C 274.360 24.400,274.000 24.220,274.000 24.000 C 274.000 23.780,273.460 23.600,272.800 23.600 C 272.140 23.600,271.600 23.420,271.600 23.200 C 271.600 22.980,271.251 22.800,270.824 22.800 C 270.397 22.800,269.936 22.620,269.800 22.400 C 269.664 22.180,269.113 22.000,268.576 22.000 C 268.039 22.000,267.600 21.820,267.600 21.600 C 267.600 21.380,267.251 21.200,266.824 21.200 C 266.397 21.200,265.936 21.020,265.800 20.800 C 265.664 20.580,265.124 20.400,264.600 20.400 C 264.076 20.400,263.536 20.220,263.400 20.000 C 263.264 19.780,262.724 19.600,262.200 19.600 C 261.676 19.600,261.136 19.420,261.000 19.200 C 260.864 18.980,260.234 18.800,259.600 18.800 C 258.966 18.800,258.336 18.620,258.200 18.400 C 258.064 18.180,257.524 18.000,257.000 18.000 C 256.476 18.000,255.936 17.820,255.800 17.600 C 255.664 17.380,255.023 17.200,254.376 17.200 C 253.729 17.200,253.200 17.020,253.200 16.800 C 253.200 16.580,252.480 16.400,251.600 16.400 C 250.720 16.400,250.000 16.220,250.000 16.000 C 250.000 15.780,249.460 15.600,248.800 15.600 C 248.140 15.600,247.600 15.420,247.600 15.200 C 247.600 14.980,246.700 14.800,245.600 14.800 C 244.500 14.800,243.600 14.620,243.600 14.400 C 243.600 14.180,242.981 14.000,242.224 14.000 C 241.467 14.000,240.736 13.820,240.600 13.600 C 240.464 13.380,239.463 13.200,238.376 13.200 C 237.289 13.200,236.400 13.020,236.400 12.800 C 236.400 12.580,235.680 12.400,234.800 12.400 C 233.920 12.400,233.200 12.220,233.200 12.000 C 233.200 11.771,232.000 11.600,230.400 11.600 C 228.800 11.600,227.600 11.429,227.600 11.200 C 227.600 10.971,226.400 10.800,224.800 10.800 C 223.200 10.800,222.000 10.629,222.000 10.400 C 222.000 10.154,220.000 10.000,216.800 10.000 C 213.600 10.000,211.600 9.846,211.600 9.600 C 211.600 9.343,207.467 9.200,200.000 9.200 C 192.533 9.200,188.400 9.343,188.400 9.600 M298.320 72.697 L 298.200 74.993 296.275 75.267 C 291.129 75.999,291.283 77.852,296.474 77.657 C 306.637 77.274,308.113 86.182,298.643 90.750 C 294.285 92.852,293.150 92.836,292.031 90.660 C 290.859 88.382,291.098 87.754,293.272 87.391 C 299.377 86.371,300.325 83.716,294.501 83.946 C 284.733 84.332,282.975 75.753,292.000 71.740 C 294.543 70.610,295.109 70.452,296.720 70.427 L 298.440 70.400 298.320 72.697 M188.513 74.551 C 190.398 75.357,191.657 76.922,194.000 81.370 C 195.151 83.553,196.399 85.893,196.773 86.570 C 198.149 89.055,198.142 89.078,195.530 90.609 C 192.028 92.662,192.572 93.129,187.712 83.893 C 185.997 80.633,183.934 79.693,182.500 81.517 C 181.510 82.776,181.983 84.613,184.622 89.768 C 186.064 92.584,187.189 94.942,187.122 95.006 C 186.538 95.567,182.314 97.600,181.732 97.600 C 181.262 97.600,180.736 97.049,180.300 96.100 C 179.921 95.275,178.532 92.620,177.214 90.200 C 172.066 80.755,172.131 81.038,174.809 79.642 C 176.356 78.836,176.564 78.815,177.430 79.383 C 178.663 80.191,179.200 80.163,179.200 79.291 C 179.200 78.261,181.437 75.710,182.922 75.044 C 185.616 73.838,186.636 73.748,188.513 74.551 M280.600 80.759 C 281.934 81.538,283.296 83.404,285.326 87.238 C 289.904 95.881,289.833 95.284,286.484 96.907 C 283.457 98.375,283.580 98.423,281.868 95.100 C 277.180 86.004,276.195 84.995,274.178 87.224 C 272.907 88.629,273.324 90.577,275.999 95.734 C 278.861 101.250,278.880 100.880,275.655 102.632 C 272.751 104.209,272.783 104.216,271.511 101.698 C 270.984 100.654,269.684 98.180,268.622 96.200 C 263.110 85.917,263.447 87.178,265.850 85.834 C 268.004 84.631,268.254 84.597,269.057 85.400 C 269.897 86.240,270.276 86.150,270.553 85.047 C 271.449 81.475,277.444 78.917,280.600 80.759 M169.800 86.729 C 171.424 87.848,174.112 91.766,173.910 92.721 C 173.850 93.009,171.902 94.269,169.582 95.522 C 163.494 98.810,163.754 98.622,164.331 99.317 C 165.668 100.927,168.653 100.312,171.752 97.787 C 174.371 95.654,174.214 95.676,175.204 97.300 C 176.389 99.242,176.213 100.156,174.347 101.753 C 166.446 108.516,158.072 106.194,155.601 96.556 C 153.767 89.398,163.699 82.525,169.800 86.729 M146.412 88.627 C 146.770 89.272,148.155 91.870,149.489 94.400 C 150.824 96.930,152.588 100.260,153.411 101.800 C 158.459 111.253,158.256 110.365,155.701 111.793 C 153.896 112.802,153.739 112.824,152.514 112.239 L 151.225 111.625 150.288 113.505 C 146.509 121.082,135.200 114.473,135.200 104.688 C 135.200 100.358,139.174 96.698,142.501 97.962 C 143.895 98.492,144.124 98.098,143.188 96.783 C 142.755 96.175,142.400 95.577,142.400 95.456 C 142.400 95.334,141.860 94.319,141.200 93.200 C 139.528 90.365,139.629 90.006,142.516 88.527 C 145.388 87.055,145.542 87.059,146.412 88.627 M162.470 91.326 C 161.486 92.373,161.284 94.400,162.162 94.400 C 162.989 94.400,166.069 92.682,166.295 92.095 C 166.930 90.444,163.875 89.829,162.470 91.326 M260.391 92.595 C 266.332 95.668,268.088 104.178,263.688 108.579 C 256.912 115.357,246.400 110.731,246.400 100.973 C 246.400 94.388,254.490 89.544,260.391 92.595 M236.835 94.113 C 238.759 95.590,238.683 97.438,236.635 99.000 C 234.103 100.932,231.200 99.908,231.200 97.084 C 231.200 94.911,235.157 92.824,236.835 94.113 M253.900 97.429 C 251.186 98.901,254.120 106.400,257.410 106.400 C 260.843 106.400,260.471 100.950,256.829 97.886 C 255.343 96.635,255.358 96.638,253.900 97.429 M240.794 101.400 C 241.158 102.060,242.505 104.580,243.787 107.000 C 245.069 109.420,246.732 112.526,247.482 113.902 C 249.077 116.829,249.102 116.754,246.019 118.358 C 243.035 119.911,243.044 119.912,242.096 118.100 C 241.664 117.275,240.542 115.160,239.602 113.400 C 233.355 101.706,233.657 102.965,236.700 101.290 C 239.417 99.794,239.915 99.808,240.794 101.400 M338.000 103.309 C 336.790 104.464,334.090 106.937,332.000 108.804 C 329.910 110.672,328.110 112.290,328.000 112.400 C 327.890 112.510,326.090 114.130,324.000 116.000 C 321.910 117.870,320.110 119.490,320.000 119.600 C 319.890 119.710,318.270 121.150,316.400 122.800 C 314.530 124.450,312.910 125.890,312.800 126.000 C 312.690 126.110,310.890 127.730,308.800 129.600 C 306.710 131.470,304.910 133.090,304.800 133.200 C 304.690 133.310,302.890 134.930,300.800 136.800 C 298.710 138.670,296.910 140.290,296.800 140.400 C 296.690 140.510,295.070 141.948,293.200 143.594 C 291.330 145.241,289.710 146.681,289.600 146.794 C 289.490 146.908,287.690 148.530,285.600 150.400 C 283.510 152.270,281.710 153.890,281.600 154.000 C 281.490 154.110,279.690 155.730,277.600 157.600 C 275.510 159.470,273.710 161.090,273.600 161.200 C 273.490 161.310,271.870 162.748,270.000 164.394 C 268.130 166.041,266.510 167.481,266.400 167.594 C 266.290 167.708,264.490 169.330,262.400 171.200 C 260.310 173.070,258.510 174.692,258.400 174.806 C 258.290 174.919,256.670 176.359,254.801 178.006 C 252.931 179.652,251.131 181.270,250.800 181.600 C 250.469 181.930,248.669 183.548,246.799 185.194 C 244.930 186.841,243.310 188.281,243.200 188.394 C 243.090 188.508,241.290 190.130,239.200 192.000 C 237.110 193.870,235.310 195.490,235.200 195.600 C 235.090 195.710,233.470 197.149,231.600 198.798 C 229.730 200.447,227.930 202.067,227.599 202.398 C 227.269 202.729,225.469 204.348,223.599 205.994 C 221.730 207.641,220.110 209.081,220.000 209.194 C 219.890 209.308,218.270 210.750,216.400 212.400 C 214.530 214.050,212.910 215.490,212.800 215.600 C 212.690 215.710,210.890 217.330,208.800 219.200 C 206.710 221.070,204.910 222.690,204.800 222.800 C 204.690 222.910,202.890 224.530,200.800 226.400 C 198.710 228.270,196.910 229.890,196.800 230.000 C 196.690 230.110,194.890 231.730,192.800 233.600 C 190.710 235.470,188.910 237.090,188.800 237.200 C 188.690 237.310,187.070 238.749,185.200 240.398 C 183.330 242.047,181.530 243.667,181.199 243.998 C 180.869 244.329,179.069 245.948,177.199 247.594 C 175.330 249.241,173.710 250.681,173.600 250.794 C 173.490 250.908,171.690 252.530,169.600 254.400 C 167.510 256.270,165.710 257.890,165.600 258.000 C 165.490 258.110,163.690 259.730,161.600 261.600 C 159.510 263.470,157.710 265.090,157.600 265.200 C 157.490 265.310,155.870 266.748,154.000 268.394 C 152.130 270.041,150.510 271.481,150.400 271.594 C 150.290 271.708,148.490 273.330,146.400 275.200 C 144.310 277.070,142.510 278.692,142.400 278.806 C 142.290 278.919,140.670 280.359,138.800 282.006 C 136.930 283.652,135.282 285.163,135.138 285.362 C 134.914 285.672,133.368 285.197,129.400 283.600 C 128.960 283.423,127.520 282.883,126.200 282.400 C 124.880 281.917,123.440 281.377,123.000 281.200 C 122.560 281.023,121.120 280.483,119.800 280.000 C 118.480 279.517,117.040 278.977,116.600 278.800 C 116.160 278.623,114.720 278.083,113.400 277.600 C 112.080 277.117,110.640 276.577,110.200 276.400 C 109.760 276.223,108.320 275.683,107.000 275.200 C 105.680 274.717,104.240 274.177,103.800 274.000 C 103.360 273.823,101.920 273.283,100.600 272.800 C 99.280 272.317,97.840 271.777,97.400 271.600 C 96.960 271.423,95.520 270.883,94.200 270.400 C 92.880 269.917,91.440 269.377,91.000 269.200 C 90.560 269.023,89.120 268.483,87.800 268.000 C 86.480 267.517,85.040 266.977,84.600 266.800 C 84.160 266.623,82.720 266.083,81.400 265.600 C 80.080 265.117,78.640 264.577,78.200 264.400 C 77.760 264.223,76.320 263.683,75.000 263.200 C 73.680 262.717,72.240 262.177,71.800 262.000 C 71.360 261.823,70.010 261.318,68.800 260.879 C 64.931 259.473,54.043 255.365,52.300 254.654 C 50.323 253.847,50.698 250.852,52.910 249.782 C 53.839 249.332,57.660 247.370,61.400 245.422 C 65.140 243.474,70.360 240.761,73.000 239.393 C 75.640 238.024,80.275 235.621,83.300 234.052 C 94.431 228.280,99.723 225.537,104.900 222.854 C 107.815 221.344,112.450 218.936,115.200 217.503 C 117.950 216.069,122.675 213.615,125.700 212.048 C 128.725 210.482,133.675 207.918,136.700 206.352 C 139.725 204.785,144.450 202.331,147.200 200.897 C 149.950 199.464,154.585 197.056,157.500 195.546 C 160.415 194.035,165.185 191.565,168.100 190.054 C 173.068 187.481,175.958 185.978,188.700 179.345 C 191.505 177.885,196.050 175.521,198.800 174.093 C 201.550 172.665,205.960 170.374,208.600 169.001 C 213.410 166.499,220.245 162.960,230.900 157.454 C 234.035 155.834,238.850 153.336,241.600 151.903 C 244.350 150.470,249.210 147.949,252.400 146.301 C 255.590 144.652,260.900 141.908,264.200 140.203 C 267.500 138.497,272.450 135.930,275.200 134.497 C 277.950 133.064,282.720 130.589,285.800 128.997 C 288.880 127.405,293.920 124.795,297.000 123.197 C 300.080 121.600,305.120 118.991,308.200 117.400 C 311.280 115.810,316.140 113.291,319.000 111.804 C 330.355 105.898,339.620 101.200,339.903 101.205 C 340.066 101.208,339.210 102.155,338.000 103.309 M143.579 102.136 C 141.494 103.175,141.770 106.548,144.166 109.326 C 146.155 111.631,149.571 110.288,148.978 107.434 C 148.251 103.937,145.460 101.198,143.579 102.136 M225.534 104.955 C 226.282 106.489,226.921 106.608,228.786 105.560 C 230.568 104.558,230.686 104.608,231.962 106.912 C 233.080 108.929,233.049 109.057,231.227 109.986 C 228.995 111.125,228.971 111.301,230.611 114.513 C 232.975 119.142,234.045 119.708,236.358 117.554 C 237.405 116.577,237.242 116.462,238.882 119.328 C 239.746 120.839,239.388 121.565,236.880 123.386 C 231.939 126.974,229.068 126.045,225.790 119.800 C 223.131 114.734,222.846 114.364,222.007 114.888 C 220.332 115.934,219.334 113.692,220.433 111.354 C 220.975 110.201,221.104 109.274,220.934 107.761 C 220.566 104.498,224.224 102.267,225.534 104.955 M348.800 104.423 C 348.800 104.655,348.635 105.600,348.433 106.523 C 347.804 109.398,346.870 114.268,346.004 119.200 C 345.752 120.630,345.391 122.520,345.200 123.400 C 345.009 124.280,344.649 126.170,344.400 127.600 C 344.151 129.030,343.791 130.920,343.600 131.800 C 343.409 132.680,343.049 134.570,342.800 136.000 C 342.551 137.430,342.191 139.320,342.000 140.200 C 341.809 141.080,341.446 142.970,341.192 144.400 C 340.247 149.721,339.928 151.440,339.595 153.000 C 339.407 153.880,339.049 155.770,338.800 157.200 C 338.551 158.630,338.191 160.520,338.000 161.400 C 337.809 162.280,337.449 164.170,337.200 165.600 C 336.951 167.030,336.591 168.920,336.400 169.800 C 336.209 170.680,335.846 172.570,335.592 174.000 C 334.647 179.321,334.328 181.040,333.995 182.600 C 333.807 183.480,333.449 185.370,333.200 186.800 C 332.951 188.230,332.591 190.120,332.400 191.000 C 332.209 191.880,331.849 193.770,331.600 195.200 C 331.351 196.630,330.993 198.520,330.805 199.400 C 330.472 200.960,330.153 202.679,329.208 208.000 C 328.954 209.430,328.591 211.320,328.400 212.200 C 328.209 213.080,327.849 214.970,327.600 216.400 C 327.351 217.830,326.991 219.720,326.800 220.600 C 326.609 221.480,326.249 223.370,326.000 224.800 C 325.751 226.230,325.393 228.120,325.205 229.000 C 324.872 230.560,324.553 232.279,323.608 237.600 C 323.354 239.030,322.991 240.920,322.800 241.800 C 322.609 242.680,322.249 244.570,322.000 246.000 C 321.751 247.430,321.391 249.320,321.200 250.200 C 321.009 251.080,320.649 252.970,320.400 254.400 C 320.151 255.830,319.793 257.720,319.605 258.600 C 319.272 260.160,318.953 261.879,318.008 267.200 C 317.754 268.630,317.391 270.520,317.200 271.400 C 317.009 272.280,316.649 274.170,316.400 275.600 C 316.151 277.030,315.791 278.920,315.600 279.800 C 315.409 280.680,315.049 282.570,314.800 284.000 C 314.551 285.430,314.193 287.320,314.005 288.200 C 313.672 289.760,313.353 291.479,312.408 296.800 C 312.154 298.230,311.791 300.120,311.600 301.000 C 311.409 301.880,311.049 303.770,310.800 305.200 C 310.551 306.630,310.191 308.520,310.000 309.400 C 309.809 310.280,309.449 312.170,309.200 313.600 C 308.951 315.030,308.593 316.920,308.405 317.800 C 308.072 319.360,307.753 321.079,306.808 326.400 C 306.554 327.830,306.191 329.720,306.000 330.600 C 305.809 331.480,305.451 333.370,305.204 334.800 C 304.957 336.230,304.605 338.030,304.421 338.800 C 304.237 339.570,303.847 341.617,303.555 343.349 C 302.725 348.264,301.903 348.476,295.200 345.505 C 291.913 344.048,291.018 343.669,288.800 342.800 C 287.590 342.326,285.970 341.660,285.200 341.321 C 282.212 340.006,281.327 339.634,279.232 338.810 C 278.040 338.342,276.315 337.617,275.400 337.200 C 274.485 336.783,272.760 336.058,271.568 335.590 C 270.375 335.121,268.770 334.460,268.000 334.121 C 264.996 332.799,264.124 332.433,262.000 331.600 C 260.790 331.126,259.170 330.460,258.400 330.121 C 255.412 328.806,254.527 328.434,252.432 327.610 C 251.240 327.142,249.515 326.417,248.600 326.000 C 247.685 325.583,245.960 324.858,244.768 324.390 C 242.673 323.566,241.788 323.194,238.800 321.879 C 238.030 321.540,236.410 320.874,235.200 320.400 C 233.990 319.926,232.415 319.282,231.700 318.969 C 230.985 318.656,229.815 318.144,229.100 317.831 C 228.385 317.518,226.810 316.874,225.600 316.400 C 224.390 315.926,222.815 315.282,222.100 314.969 C 221.385 314.656,220.215 314.145,219.500 313.834 C 218.785 313.522,216.940 312.775,215.400 312.174 C 213.860 311.573,212.429 310.928,212.220 310.740 C 212.011 310.553,211.697 310.400,211.521 310.400 C 211.346 310.400,203.075 322.591,193.140 337.490 C 172.767 368.045,173.181 367.476,173.988 363.787 C 174.496 361.463,176.111 352.931,177.202 346.800 C 177.457 345.370,177.831 343.345,178.033 342.300 C 178.235 341.255,178.565 339.545,178.767 338.500 C 178.969 337.455,179.343 335.430,179.598 334.000 C 179.852 332.570,180.213 330.590,180.400 329.600 C 180.587 328.610,180.945 326.630,181.196 325.200 C 181.448 323.770,181.809 321.880,182.000 321.000 C 182.191 320.120,182.552 318.230,182.804 316.800 C 183.055 315.370,183.416 313.390,183.606 312.400 C 183.796 311.410,184.164 309.340,184.422 307.800 C 184.681 306.260,185.052 304.478,185.246 303.840 C 185.441 303.202,185.600 302.190,185.600 301.591 C 185.600 298.988,186.878 297.084,195.852 286.317 C 200.856 280.313,205.055 275.310,205.181 275.200 C 205.307 275.090,206.216 274.010,207.200 272.800 C 208.184 271.590,209.084 270.510,209.200 270.400 C 209.316 270.290,210.216 269.210,211.200 268.000 C 212.184 266.790,213.084 265.710,213.200 265.600 C 213.316 265.490,214.216 264.410,215.200 263.200 C 216.184 261.990,217.084 260.910,217.200 260.800 C 217.316 260.690,218.216 259.610,219.200 258.400 C 220.184 257.190,221.084 256.110,221.200 256.000 C 221.316 255.890,222.216 254.810,223.200 253.600 C 224.184 252.390,225.084 251.310,225.200 251.200 C 225.316 251.090,226.216 250.010,227.200 248.800 C 228.184 247.590,229.088 246.510,229.209 246.400 C 229.415 246.213,242.720 230.282,261.613 207.600 C 266.103 202.210,269.874 197.710,269.994 197.600 C 270.113 197.490,271.016 196.410,272.000 195.200 C 272.984 193.990,273.884 192.910,274.000 192.800 C 274.116 192.690,275.016 191.610,276.000 190.400 C 276.984 189.190,277.884 188.110,278.000 188.000 C 278.116 187.890,279.016 186.810,280.000 185.600 C 280.984 184.390,281.884 183.310,282.000 183.200 C 282.116 183.090,283.016 182.010,284.000 180.800 C 284.984 179.590,285.884 178.510,286.000 178.400 C 286.116 178.290,287.016 177.210,288.000 176.000 C 288.984 174.790,289.883 173.710,289.998 173.600 C 290.209 173.399,291.331 172.058,306.402 154.000 C 310.901 148.610,314.678 144.110,314.796 144.000 C 314.914 143.890,315.816 142.810,316.800 141.600 C 317.784 140.390,318.684 139.310,318.800 139.200 C 318.916 139.090,319.816 138.010,320.800 136.800 C 321.784 135.590,322.684 134.510,322.800 134.400 C 322.916 134.290,323.816 133.210,324.800 132.000 C 325.784 130.790,326.684 129.710,326.800 129.600 C 326.916 129.490,327.816 128.410,328.800 127.200 C 329.784 125.990,330.684 124.910,330.800 124.800 C 330.916 124.690,331.816 123.610,332.800 122.400 C 333.784 121.190,334.684 120.110,334.800 120.000 C 334.916 119.890,335.818 118.810,336.804 117.600 C 337.790 116.390,338.777 115.205,338.998 114.966 C 339.219 114.728,341.378 112.163,343.796 109.266 C 347.981 104.253,348.800 103.460,348.800 104.423 M130.400 107.256 C 131.912 108.177,132.420 108.775,134.080 111.587 C 135.499 113.990,135.979 113.500,128.289 117.500 C 125.152 119.132,124.872 119.444,125.752 120.323 C 127.216 121.788,131.247 120.441,133.762 117.647 C 134.892 116.391,135.490 116.602,136.390 118.578 C 137.391 120.775,137.408 120.556,136.143 121.821 C 128.414 129.549,117.936 126.800,116.549 116.679 C 115.624 109.932,124.680 103.771,130.400 107.256 M123.382 112.182 C 122.302 113.262,122.087 114.705,122.957 115.039 C 123.706 115.326,127.600 113.258,127.600 112.572 C 127.600 111.067,124.759 110.805,123.382 112.182 M106.440 112.454 C 110.206 113.713,112.636 119.311,110.737 122.352 C 110.048 123.455,110.513 124.166,112.664 125.297 C 114.705 126.370,118.900 128.691,120.164 129.447 C 121.216 130.076,120.798 130.518,117.557 132.195 L 114.714 133.666 112.657 132.374 C 104.275 127.111,103.353 127.189,106.400 132.904 C 108.544 136.925,108.505 137.131,105.317 138.730 C 102.825 139.980,102.639 140.016,102.233 139.334 C 101.659 138.371,98.858 133.173,96.192 128.124 C 95.009 125.882,93.401 122.885,92.620 121.464 C 90.674 117.922,90.589 118.073,96.100 115.288 C 102.525 112.042,103.998 111.638,106.440 112.454 M214.885 114.873 C 216.838 115.458,218.507 117.353,220.508 121.258 C 221.337 122.876,222.643 125.341,223.409 126.735 C 225.000 129.628,224.997 129.646,222.613 130.837 C 220.913 131.685,220.801 131.693,219.787 131.028 C 219.206 130.648,218.678 130.395,218.614 130.468 C 218.551 130.541,218.113 131.365,217.641 132.300 C 214.317 138.892,204.360 136.681,205.314 129.563 C 205.639 127.142,210.315 122.400,212.378 122.400 C 213.159 122.400,212.812 120.858,211.971 120.591 C 210.641 120.169,209.423 120.677,207.654 122.394 C 205.689 124.301,205.420 124.326,203.603 122.774 C 202.249 121.617,202.225 121.547,202.817 120.490 C 203.609 119.074,208.490 115.723,210.798 115.011 C 213.079 114.308,213.008 114.310,214.885 114.873 M101.281 118.485 C 99.472 118.962,99.348 119.628,100.628 121.981 C 101.865 124.253,102.609 124.481,103.991 123.009 C 106.265 120.589,104.498 117.638,101.281 118.485 M198.200 125.993 L 198.200 128.586 196.674 128.834 C 192.281 129.549,191.494 133.341,194.959 137.100 C 196.747 139.040,199.135 138.471,201.639 135.508 C 202.844 134.083,203.293 134.229,204.406 136.411 C 205.504 138.565,205.427 138.981,203.594 140.759 C 199.154 145.069,193.646 145.431,189.987 141.655 C 183.512 134.972,185.598 126.644,194.454 123.819 C 197.774 122.760,198.200 123.007,198.200 125.993 M176.679 126.200 C 178.551 127.512,178.196 130.265,176.008 131.396 C 173.450 132.719,171.184 131.728,171.114 129.254 C 171.040 126.655,174.566 124.721,176.679 126.200 M212.636 126.831 C 211.484 128.200,211.415 128.507,212.014 129.626 C 212.851 131.191,216.000 129.786,216.000 127.848 C 216.000 125.498,214.212 124.958,212.636 126.831 M180.764 133.700 C 189.834 150.589,189.294 148.544,185.233 150.637 L 183.067 151.754 182.433 150.824 C 181.768 149.847,179.782 146.187,176.146 139.236 C 173.740 134.636,173.720 134.846,176.712 133.138 C 179.278 131.673,179.708 131.733,180.764 133.700 M309.960 138.300 C 308.972 139.584,306.214 142.997,306.000 143.200 C 305.884 143.310,304.984 144.390,304.000 145.600 C 303.016 146.810,302.116 147.890,302.000 148.000 C 301.884 148.110,300.984 149.190,300.000 150.400 C 299.016 151.610,298.116 152.690,298.000 152.800 C 297.884 152.910,296.984 153.990,296.000 155.200 C 295.016 156.410,294.109 157.490,293.985 157.600 C 293.796 157.768,272.053 183.832,233.422 230.200 C 229.023 235.480,225.326 239.890,225.206 240.000 C 225.087 240.110,224.184 241.190,223.200 242.400 C 222.216 243.610,221.316 244.690,221.200 244.800 C 221.084 244.910,220.184 245.990,219.200 247.200 C 218.216 248.410,217.316 249.490,217.200 249.600 C 217.084 249.710,216.184 250.790,215.200 252.000 C 214.216 253.210,213.316 254.290,213.200 254.400 C 213.084 254.510,212.184 255.590,211.200 256.800 C 210.216 258.010,209.316 259.090,209.200 259.200 C 209.084 259.310,208.181 260.389,207.195 261.599 C 206.208 262.808,204.923 264.338,204.340 264.999 C 203.757 265.659,198.076 272.441,191.715 280.068 C 179.613 294.579,179.692 294.460,178.794 299.600 C 178.544 301.030,178.187 303.010,178.000 304.000 C 177.813 304.990,177.455 306.970,177.204 308.400 C 176.952 309.830,176.591 311.720,176.400 312.600 C 176.209 313.480,175.848 315.370,175.596 316.800 C 175.345 318.230,174.987 320.210,174.800 321.200 C 174.613 322.190,174.255 324.170,174.004 325.600 C 173.752 327.030,173.391 328.920,173.200 329.800 C 173.009 330.680,172.648 332.570,172.396 334.000 C 172.145 335.430,171.787 337.410,171.600 338.400 C 171.413 339.390,171.055 341.370,170.804 342.800 C 170.552 344.230,170.191 346.120,170.000 347.000 C 169.809 347.880,169.448 349.770,169.196 351.200 C 168.945 352.630,168.587 354.610,168.400 355.600 C 168.213 356.590,167.855 358.570,167.604 360.000 C 166.338 367.202,166.216 367.257,164.319 361.496 C 163.505 359.023,161.743 353.850,160.403 350.000 C 159.062 346.150,157.261 340.930,156.400 338.400 C 155.539 335.870,153.739 330.650,152.400 326.800 C 151.061 322.950,149.261 317.730,148.400 315.200 C 147.539 312.670,145.740 307.450,144.403 303.600 C 143.066 299.750,141.512 295.261,140.951 293.624 L 139.929 290.648 141.667 289.024 C 142.623 288.131,144.303 286.606,145.402 285.635 C 146.501 284.665,148.302 283.045,149.403 282.035 C 150.505 281.026,152.305 279.406,153.403 278.435 C 154.502 277.465,156.302 275.845,157.403 274.835 C 158.505 273.826,160.305 272.206,161.403 271.235 C 162.502 270.265,164.302 268.645,165.403 267.635 C 166.505 266.626,168.305 265.006,169.403 264.035 C 170.502 263.065,172.302 261.445,173.403 260.435 C 174.505 259.426,176.305 257.806,177.403 256.835 C 178.502 255.865,180.302 254.245,181.403 253.235 C 182.505 252.226,184.305 250.606,185.403 249.635 C 186.502 248.665,188.300 247.045,189.400 246.035 C 190.500 245.025,193.110 242.670,195.200 240.800 C 197.290 238.930,199.090 237.310,199.200 237.200 C 199.310 237.090,201.110 235.470,203.200 233.600 C 205.290 231.730,207.090 230.110,207.200 230.000 C 207.310 229.890,209.110 228.270,211.200 226.400 C 213.290 224.530,215.090 222.910,215.200 222.800 C 215.310 222.690,217.110 221.070,219.200 219.200 C 221.290 217.330,223.090 215.710,223.200 215.600 C 223.310 215.490,225.110 213.870,227.200 212.000 C 229.290 210.130,231.090 208.510,231.200 208.400 C 231.310 208.290,233.110 206.670,235.200 204.800 C 237.290 202.930,239.090 201.310,239.200 201.200 C 239.310 201.090,241.110 199.470,243.200 197.600 C 245.290 195.730,247.090 194.110,247.200 194.000 C 247.310 193.890,249.110 192.270,251.200 190.400 C 253.290 188.530,255.090 186.910,255.200 186.800 C 255.310 186.690,257.110 185.070,259.200 183.201 C 261.290 181.331,263.270 179.531,263.601 179.201 C 263.931 178.870,265.731 177.253,267.601 175.607 C 269.470 173.961,271.270 172.341,271.600 172.006 C 271.930 171.671,273.730 170.048,275.600 168.400 C 277.470 166.752,279.270 165.133,279.600 164.802 C 279.930 164.471,281.100 163.406,282.200 162.435 C 283.300 161.465,285.102 159.845,286.203 158.835 C 287.305 157.826,289.105 156.206,290.203 155.235 C 291.302 154.265,293.100 152.645,294.200 151.635 C 295.300 150.625,297.910 148.270,299.999 146.400 C 302.088 144.530,304.608 142.257,305.599 141.348 C 309.525 137.748,311.383 136.449,309.960 138.300 M170.720 140.700 C 171.612 141.525,172.874 143.190,173.524 144.400 C 179.280 155.123,179.104 154.143,175.601 155.936 C 172.807 157.366,172.774 157.361,171.697 155.302 C 167.011 146.344,166.480 145.600,164.776 145.600 C 162.150 145.600,161.859 148.430,164.056 152.615 C 168.308 160.713,168.262 159.991,164.643 161.761 C 161.823 163.141,162.016 163.231,160.171 159.700 C 159.279 157.995,157.346 154.315,155.875 151.522 C 152.708 145.509,152.783 146.020,154.900 144.898 C 156.798 143.893,157.624 143.784,158.293 144.453 C 158.914 145.074,160.000 144.589,160.000 143.691 C 160.000 143.287,160.585 142.403,161.300 141.725 C 164.527 138.667,168.100 138.278,170.720 140.700 M149.101 148.900 C 149.320 149.175,150.352 151.020,151.394 153.000 C 152.436 154.980,154.258 158.423,155.444 160.651 C 158.025 165.501,158.001 165.238,155.962 166.326 C 154.197 167.268,152.994 167.438,152.600 166.800 C 152.178 166.118,151.267 166.359,150.992 167.226 C 150.151 169.874,146.922 172.000,143.740 172.000 C 141.095 172.000,139.210 170.503,137.352 166.926 C 136.687 165.647,135.301 163.024,134.272 161.097 C 131.965 156.779,131.941 157.109,134.671 155.630 C 138.218 153.709,137.723 153.327,141.887 161.200 C 144.691 166.503,148.266 167.424,148.145 162.812 C 148.107 161.356,147.613 160.204,144.641 154.634 C 142.877 151.328,142.917 151.165,145.881 149.635 C 148.576 148.245,148.578 148.244,149.101 148.900 M128.432 161.710 C 130.398 163.035,136.818 173.929,136.790 175.893 C 136.781 176.520,131.782 179.518,131.396 179.128 C 131.326 179.058,130.553 177.650,129.679 176.000 C 125.122 167.398,124.416 166.573,122.623 167.748 C 120.615 169.064,121.156 171.180,125.615 179.466 C 126.766 181.604,126.606 181.928,123.616 183.530 C 120.667 185.109,121.074 185.415,117.922 179.253 C 114.799 173.149,113.535 172.029,111.764 173.800 C 110.394 175.169,110.709 176.562,113.681 182.290 C 116.453 187.633,116.475 187.283,113.255 189.032 C 110.351 190.609,110.383 190.616,109.111 188.098 C 108.584 187.054,107.284 184.580,106.222 182.600 C 100.710 172.317,101.047 173.578,103.450 172.234 C 105.604 171.031,105.854 170.997,106.657 171.800 C 107.500 172.643,107.876 172.550,108.157 171.431 C 108.872 168.581,112.851 166.170,116.259 166.521 C 118.248 166.727,118.349 166.689,118.809 165.578 C 120.368 161.815,125.517 159.746,128.432 161.710 M98.316 179.100 C 100.729 181.335,106.386 192.053,105.633 192.961 C 105.146 193.547,101.186 195.604,100.560 195.595 C 100.362 195.592,99.052 193.387,97.649 190.695 C 94.147 183.973,93.032 182.942,91.131 184.662 C 89.823 185.846,90.233 187.653,93.030 193.043 C 95.976 198.719,95.997 198.382,92.603 200.156 C 89.648 201.701,90.277 202.256,86.134 194.447 C 83.532 189.543,82.451 188.706,80.731 190.262 C 79.220 191.630,79.917 194.106,83.728 200.914 C 85.321 203.759,85.197 204.139,82.174 205.670 C 79.147 207.203,79.782 207.615,76.859 202.216 C 72.187 193.589,70.414 190.039,70.694 189.871 C 73.809 188.004,75.291 187.577,75.800 188.400 C 76.264 189.150,76.840 188.802,77.416 187.424 C 78.437 184.979,81.434 183.266,84.968 183.107 C 87.196 183.006,87.380 182.921,88.085 181.654 C 90.396 177.506,95.280 176.287,98.316 179.100 M65.062 194.900 C 71.800 196.699,75.269 206.870,70.679 211.369 C 64.249 217.670,56.877 215.688,53.251 206.681 C 50.774 200.530,58.243 193.080,65.062 194.900 M45.916 200.860 C 46.478 203.882,46.548 203.774,43.616 204.397 C 37.747 205.642,36.534 210.033,40.454 215.846 C 43.009 219.635,46.343 219.663,50.583 215.931 C 52.666 214.098,52.857 214.149,54.259 216.917 L 55.303 218.977 53.418 220.684 C 46.143 227.271,37.756 226.003,33.392 217.657 C 28.968 209.196,32.179 202.017,41.736 199.004 C 45.083 197.949,45.401 198.090,45.916 200.860 M60.075 200.816 C 58.576 202.213,59.458 205.679,62.009 208.410 C 64.802 211.400,67.534 208.413,65.801 204.264 C 64.298 200.666,61.831 199.180,60.075 200.816 " stroke="none" fill="#153fe6" fill-rule="evenodd"></path></g></svg>